SplineFontDB: 3.2
FontName: FdSymbolF-Medium
FullName: FdSymbolF-Medium
FamilyName: FdSymbolF
Weight: Medium
Copyright: Copyright (c) 2011-2025, Michael Ummels. This Font Software is licensed under the SIL Open Font License, Version 1.1.
Version: 1.010
ItalicAngle: 0
UnderlinePosition: -100
UnderlineWidth: 50
Ascent: 800
Descent: 200
InvalidEm: 0
LayerCount: 2
Layer: 0 0 "Back" 1
Layer: 1 0 "Fore" 0
OS2Version: 0
OS2_WeightWidthSlopeOnly: 0
OS2_UseTypoMetrics: 0
CreationTime: 1739799039
ModificationTime: 1739799039
OS2TypoAscent: 0
OS2TypoAOffset: 1
OS2TypoDescent: 0
OS2TypoDOffset: 1
OS2TypoLinegap: 0
OS2WinAscent: 0
OS2WinAOffset: 1
OS2WinDescent: 0
OS2WinDOffset: 1
HheadAscent: 0
HheadAOffset: 1
HheadDescent: 0
HheadDOffset: 1
OS2Vendor: 'PfEd'
DEI: 91125
Encoding: Custom
UnicodeInterp: none
NameList: AGL For New Fonts
DisplaySize: -48
AntiAlias: 1
FitToEm: 0
BeginPrivate: 2
BlueValues 31 [-10 0 546 556 707 717 754 764]
OtherBlues 11 [-230 -220]
EndPrivate
BeginChars: 256 228

StartChar: parenleft
Encoding: 0 40 0
Width: 461
Flags: HW
HStem: -230 21G<228.5 324>
VStem: 96 86<113.339 486.661>
LayerCount: 2
Fore
SplineSet
365 -169 m 1
 304 -230 l 1
 153 -101 96 100 96 300 c 0
 96 500 153 701 304 830 c 1
 365 769 l 1
 231 655 182 476 182 300 c 0
 182 124 231 -55 365 -169 c 1
EndSplineSet
EndChar

StartChar: parenleft.big1
Encoding: 1 -1 1
Width: 467
Flags: HW
VStem: 96 86<90.4044 509.596>
LayerCount: 2
Fore
SplineSet
371 -222 m 1
 310 -283 l 1
 150 -138 96 83 96 300 c 0
 96 517 150 738 310 883 c 1
 371 822 l 1
 229 691 182 494 182 300 c 0
 182 106 229 -91 371 -222 c 1
EndSplineSet
EndChar

StartChar: parenleft.big2
Encoding: 2 -1 2
Width: 485
Flags: HW
VStem: 96 86<53.2616 546.738>
LayerCount: 2
Fore
SplineSet
389 -381 m 1
 328 -442 l 1
 144 -246 96 31 96 300 c 0
 96 569 144 846 328 1042 c 1
 389 981 l 1
 223 799 182 546 182 300 c 0
 182 54 223 -199 389 -381 c 1
EndSplineSet
EndChar

StartChar: parenleft.big3
Encoding: 3 -1 3
Width: 509
Flags: HW
VStem: 96 86<54.223 545.777>
LayerCount: 2
Fore
SplineSet
413 -593 m 1
 352 -654 l 1
 139 -390 96 -39 96 300 c 0
 96 639 139 990 352 1254 c 1
 413 1193 l 1
 219 943 182 616 182 300 c 0
 182 -16 219 -343 413 -593 c 1
EndSplineSet
EndChar

StartChar: parenleft.big4
Encoding: 4 -1 4
Width: 545
Flags: HW
VStem: 96 86<55.1169 544.883>
LayerCount: 2
Fore
SplineSet
449 -911 m 1
 388 -972 l 1
 135 -605 96 -145 96 300 c 0
 96 745 135 1205 388 1572 c 1
 449 1511 l 1
 216 1158 182 723 182 300 c 0
 182 -123 216 -558 449 -911 c 1
EndSplineSet
EndChar

StartChar: parenleft.big5
Encoding: 5 -1 5
Width: 581
Flags: HW
VStem: 96 86<58.9092 541.091>
LayerCount: 2
Fore
SplineSet
485 -1229 m 1
 424 -1290 l 1
 133 -820 96 -252 96 300 c 0
 96 852 133 1420 424 1890 c 1
 485 1829 l 1
 214 1373 182 829 182 300 c 0
 182 -229 214 -773 485 -1229 c 1
EndSplineSet
EndChar

StartChar: parenright
Encoding: 6 41 6
Width: 461
Flags: HW
HStem: -230 21G<137 232.5>
VStem: 279 86<113.339 486.661>
LayerCount: 2
Fore
SplineSet
96 -169 m 1
 230 -55 279 124 279 300 c 0
 279 476 230 655 96 769 c 1
 157 830 l 1
 308 701 365 500 365 300 c 0
 365 100 308 -101 157 -230 c 1
 96 -169 l 1
EndSplineSet
EndChar

StartChar: parenright.big1
Encoding: 7 -1 7
Width: 467
Flags: HW
VStem: 285 86<90.4044 509.596>
LayerCount: 2
Fore
SplineSet
96 -222 m 1
 238 -91 285 106 285 300 c 0
 285 494 238 691 96 822 c 1
 157 883 l 1
 317 738 371 517 371 300 c 0
 371 83 317 -138 157 -283 c 1
 96 -222 l 1
EndSplineSet
EndChar

StartChar: parenright.big2
Encoding: 8 -1 8
Width: 485
Flags: HW
VStem: 303 86<53.2616 546.738>
LayerCount: 2
Fore
SplineSet
96 -381 m 1
 262 -199 303 54 303 300 c 0
 303 546 262 799 96 981 c 1
 157 1042 l 1
 341 846 389 569 389 300 c 0
 389 31 341 -246 157 -442 c 1
 96 -381 l 1
EndSplineSet
EndChar

StartChar: parenright.big3
Encoding: 9 -1 9
Width: 509
Flags: HW
VStem: 327 86<54.223 545.777>
LayerCount: 2
Fore
SplineSet
96 -593 m 1
 290 -343 327 -16 327 300 c 0
 327 616 290 943 96 1193 c 1
 157 1254 l 1
 370 990 413 639 413 300 c 0
 413 -39 370 -390 157 -654 c 1
 96 -593 l 1
EndSplineSet
EndChar

StartChar: parenright.big4
Encoding: 10 -1 10
Width: 545
Flags: HW
VStem: 363 86<55.1169 544.883>
LayerCount: 2
Fore
SplineSet
96 -911 m 1
 329 -558 363 -123 363 300 c 0
 363 723 329 1158 96 1511 c 1
 157 1572 l 1
 410 1205 449 745 449 300 c 0
 449 -145 410 -605 157 -972 c 1
 96 -911 l 1
EndSplineSet
EndChar

StartChar: parenright.big5
Encoding: 11 -1 11
Width: 581
Flags: HW
VStem: 399 86<58.9092 541.091>
LayerCount: 2
Fore
SplineSet
96 -1229 m 1
 367 -773 399 -229 399 300 c 0
 399 829 367 1373 96 1829 c 1
 157 1890 l 1
 448 1420 485 852 485 300 c 0
 485 -252 448 -820 157 -1290 c 1
 96 -1229 l 1
EndSplineSet
EndChar

StartChar: uni239B
Encoding: 12 9115 12
Width: 581
Flags: HW
VStem: 93 86<-538 -221.859>
LayerCount: 2
Fore
SplineSet
179 -538 m 1
 93 -538 l 1
 93 -452 l 2
 93 92 129 652 414 1117 c 1
 488 1074 l 1
 213 621 179 77 179 -452 c 2
 179 -538 l 1
EndSplineSet
EndChar

StartChar: uni239E
Encoding: 13 9118 13
Width: 581
Flags: HW
VStem: 402 86<-538 -221.859>
LayerCount: 2
Fore
SplineSet
402 -538 m 1
 402 -452 l 2
 402 77 368 621 93 1074 c 1
 167 1117 l 1
 452 652 488 92 488 -452 c 2
 488 -538 l 1
 402 -538 l 1
EndSplineSet
EndChar

StartChar: uni239D
Encoding: 14 9117 14
Width: 581
Flags: HW
VStem: 93 86<821.859 1138>
LayerCount: 2
Fore
SplineSet
488 -474 m 1
 414 -517 l 1
 129 -52 93 508 93 1052 c 2
 93 1138 l 1
 179 1138 l 1
 179 1052 l 2
 179 523 213 -21 488 -474 c 1
EndSplineSet
EndChar

StartChar: uni23A0
Encoding: 15 9120 15
Width: 581
Flags: HW
VStem: 402 86<821.859 1138>
LayerCount: 2
Fore
SplineSet
93 -474 m 1
 368 -21 402 523 402 1052 c 2
 402 1138 l 1
 488 1138 l 1
 488 1052 l 2
 488 508 452 -52 167 -517 c 1
 93 -474 l 1
EndSplineSet
EndChar

StartChar: uni239C
Encoding: 16 9116 16
Width: 581
Flags: HW
VStem: 96 86<98 502>
LayerCount: 2
Fore
SplineSet
182 502 m 1
 182 98 l 1
 96 98 l 1
 96 502 l 1
 182 502 l 1
EndSplineSet
EndChar

StartChar: uni239F
Encoding: 17 9119 17
Width: 581
Flags: HW
VStem: 399 86<98 502>
LayerCount: 2
Fore
SplineSet
399 502 m 1
 485 502 l 1
 485 98 l 1
 399 98 l 1
 399 502 l 1
EndSplineSet
EndChar

StartChar: bracketleft
Encoding: 18 91 18
Width: 446
Flags: HW
HStem: -230 86<176 356> 744 86<176 356>
VStem: 90 266<-230 -144 744 830> 90 86<-144 744>
LayerCount: 2
Fore
SplineSet
176 744 m 1xd0
 176 -144 l 1xd0
 356 -144 l 1
 356 -230 l 1
 90 -230 l 1
 90 830 l 1
 356 830 l 1
 356 744 l 1xe0
 176 744 l 1xd0
EndSplineSet
EndChar

StartChar: bracketleft.big1
Encoding: 19 -1 19
Width: 458
Flags: HW
HStem: -336 86<176 368> 850 86<176 368>
VStem: 90 86<-250 850>
LayerCount: 2
Fore
SplineSet
176 850 m 1
 176 -250 l 1
 368 -250 l 1
 368 -336 l 1
 90 -336 l 1
 90 936 l 1
 368 936 l 1
 368 850 l 1
 176 850 l 1
EndSplineSet
EndChar

StartChar: bracketleft.big2
Encoding: 20 -1 20
Width: 476
Flags: HW
HStem: -495 86<176 386> 1009 86<176 386>
VStem: 90 86<-409 1009>
LayerCount: 2
Fore
SplineSet
176 1009 m 1
 176 -409 l 1
 386 -409 l 1
 386 -495 l 1
 90 -495 l 1
 90 1095 l 1
 386 1095 l 1
 386 1009 l 1
 176 1009 l 1
EndSplineSet
EndChar

StartChar: bracketleft.big3
Encoding: 21 -1 21
Width: 494
Flags: HW
HStem: -654 86<176 404> 1168 86<176 404>
VStem: 90 86<-568 1168>
LayerCount: 2
Fore
SplineSet
176 1168 m 1
 176 -568 l 1
 404 -568 l 1
 404 -654 l 1
 90 -654 l 1
 90 1254 l 1
 404 1254 l 1
 404 1168 l 1
 176 1168 l 1
EndSplineSet
EndChar

StartChar: bracketleft.big4
Encoding: 22 -1 22
Width: 530
Flags: HW
HStem: -972 86<176 440> 1486 86<176 440>
VStem: 90 86<-886 1486>
LayerCount: 2
Fore
SplineSet
176 1486 m 1
 176 -886 l 1
 440 -886 l 1
 440 -972 l 1
 90 -972 l 1
 90 1572 l 1
 440 1572 l 1
 440 1486 l 1
 176 1486 l 1
EndSplineSet
EndChar

StartChar: bracketleft.big5
Encoding: 23 -1 23
Width: 566
Flags: HW
HStem: -1290 86<176 476> 1804 86<176 476>
VStem: 90 86<-1204 1804>
LayerCount: 2
Fore
SplineSet
176 1804 m 1
 176 -1204 l 1
 476 -1204 l 1
 476 -1290 l 1
 90 -1290 l 1
 90 1890 l 1
 476 1890 l 1
 476 1804 l 1
 176 1804 l 1
EndSplineSet
EndChar

StartChar: bracketright
Encoding: 24 93 24
Width: 446
Flags: HW
HStem: -230 86<90 270> 744 86<90 270>
VStem: 90 266<-230 -144 744 830> 270 86<-144 744>
LayerCount: 2
Fore
SplineSet
356 830 m 1xe0
 356 -230 l 1
 90 -230 l 1
 90 -144 l 1xe0
 270 -144 l 1
 270 744 l 1xd0
 90 744 l 1
 90 830 l 1
 356 830 l 1xe0
EndSplineSet
EndChar

StartChar: bracketright.big1
Encoding: 25 -1 25
Width: 458
Flags: HW
HStem: -336 86<90 282> 850 86<90 282>
VStem: 282 86<-250 850>
LayerCount: 2
Fore
SplineSet
368 936 m 1
 368 -336 l 1
 90 -336 l 1
 90 -250 l 1
 282 -250 l 1
 282 850 l 1
 90 850 l 1
 90 936 l 1
 368 936 l 1
EndSplineSet
EndChar

StartChar: bracketright.big2
Encoding: 26 -1 26
Width: 476
Flags: HW
HStem: -495 86<90 300> 1009 86<90 300>
VStem: 300 86<-409 1009>
LayerCount: 2
Fore
SplineSet
386 1095 m 1
 386 -495 l 1
 90 -495 l 1
 90 -409 l 1
 300 -409 l 1
 300 1009 l 1
 90 1009 l 1
 90 1095 l 1
 386 1095 l 1
EndSplineSet
EndChar

StartChar: bracketright.big3
Encoding: 27 -1 27
Width: 494
Flags: HW
HStem: -654 86<90 318> 1168 86<90 318>
VStem: 318 86<-568 1168>
LayerCount: 2
Fore
SplineSet
404 1254 m 1
 404 -654 l 1
 90 -654 l 1
 90 -568 l 1
 318 -568 l 1
 318 1168 l 1
 90 1168 l 1
 90 1254 l 1
 404 1254 l 1
EndSplineSet
EndChar

StartChar: bracketright.big4
Encoding: 28 -1 28
Width: 530
Flags: HW
HStem: -972 86<90 354> 1486 86<90 354>
VStem: 354 86<-886 1486>
LayerCount: 2
Fore
SplineSet
440 1572 m 1
 440 -972 l 1
 90 -972 l 1
 90 -886 l 1
 354 -886 l 1
 354 1486 l 1
 90 1486 l 1
 90 1572 l 1
 440 1572 l 1
EndSplineSet
EndChar

StartChar: bracketright.big5
Encoding: 29 -1 29
Width: 566
Flags: HW
HStem: -1290 86<90 390> 1804 86<90 390>
VStem: 390 86<-1204 1804>
LayerCount: 2
Fore
SplineSet
476 1890 m 1
 476 -1290 l 1
 90 -1290 l 1
 90 -1204 l 1
 390 -1204 l 1
 390 1804 l 1
 90 1804 l 1
 90 1890 l 1
 476 1890 l 1
EndSplineSet
EndChar

StartChar: uni230A
Encoding: 30 8970 30
Width: 446
Flags: HW
HStem: -230 86<176 356>
VStem: 90 86<-144 873>
LayerCount: 2
Fore
SplineSet
176 -144 m 1
 356 -144 l 1
 356 -230 l 1
 90 -230 l 1
 90 873 l 1
 176 873 l 1
 176 -144 l 1
EndSplineSet
EndChar

StartChar: uni230A.big1
Encoding: 31 -1 31
Width: 458
Flags: HW
HStem: -336 86<176 368>
VStem: 90 86<-250 979>
LayerCount: 2
Fore
SplineSet
176 -250 m 1
 368 -250 l 1
 368 -336 l 1
 90 -336 l 1
 90 979 l 1
 176 979 l 1
 176 -250 l 1
EndSplineSet
EndChar

StartChar: uni230A.big2
Encoding: 32 -1 32
Width: 476
Flags: HW
HStem: -495 86<176 386>
VStem: 90 86<-409 1138>
LayerCount: 2
Fore
SplineSet
176 -409 m 1
 386 -409 l 1
 386 -495 l 1
 90 -495 l 1
 90 1138 l 1
 176 1138 l 1
 176 -409 l 1
EndSplineSet
EndChar

StartChar: uni230A.big3
Encoding: 33 -1 33
Width: 494
Flags: HW
HStem: -654 86<176 404>
VStem: 90 86<-568 1297>
LayerCount: 2
Fore
SplineSet
176 -568 m 1
 404 -568 l 1
 404 -654 l 1
 90 -654 l 1
 90 1297 l 1
 176 1297 l 1
 176 -568 l 1
EndSplineSet
EndChar

StartChar: uni230A.big4
Encoding: 34 -1 34
Width: 530
Flags: HW
HStem: -972 86<176 440>
VStem: 90 86<-886 1615>
LayerCount: 2
Fore
SplineSet
176 -886 m 1
 440 -886 l 1
 440 -972 l 1
 90 -972 l 1
 90 1615 l 1
 176 1615 l 1
 176 -886 l 1
EndSplineSet
EndChar

StartChar: uni230A.big5
Encoding: 35 -1 35
Width: 566
Flags: HW
HStem: -1290 86<176 476>
VStem: 90 86<-1204 1933>
LayerCount: 2
Fore
SplineSet
176 -1204 m 1
 476 -1204 l 1
 476 -1290 l 1
 90 -1290 l 1
 90 1933 l 1
 176 1933 l 1
 176 -1204 l 1
EndSplineSet
EndChar

StartChar: uni230B
Encoding: 36 8971 36
Width: 446
Flags: HW
HStem: -230 86<90 270>
VStem: 270 86<-144 873>
LayerCount: 2
Fore
SplineSet
356 -230 m 1
 90 -230 l 1
 90 -144 l 1
 270 -144 l 1
 270 873 l 1
 356 873 l 1
 356 -230 l 1
EndSplineSet
EndChar

StartChar: uni230B.big1
Encoding: 37 -1 37
Width: 458
Flags: HW
HStem: -336 86<90 282>
VStem: 282 86<-250 979>
LayerCount: 2
Fore
SplineSet
368 -336 m 1
 90 -336 l 1
 90 -250 l 1
 282 -250 l 1
 282 979 l 1
 368 979 l 1
 368 -336 l 1
EndSplineSet
EndChar

StartChar: uni230B.big2
Encoding: 38 -1 38
Width: 476
Flags: HW
HStem: -495 86<90 300>
VStem: 300 86<-409 1138>
LayerCount: 2
Fore
SplineSet
386 -495 m 1
 90 -495 l 1
 90 -409 l 1
 300 -409 l 1
 300 1138 l 1
 386 1138 l 1
 386 -495 l 1
EndSplineSet
EndChar

StartChar: uni230B.big3
Encoding: 39 -1 39
Width: 494
Flags: HW
HStem: -654 86<90 318>
VStem: 318 86<-568 1297>
LayerCount: 2
Fore
SplineSet
404 -654 m 1
 90 -654 l 1
 90 -568 l 1
 318 -568 l 1
 318 1297 l 1
 404 1297 l 1
 404 -654 l 1
EndSplineSet
EndChar

StartChar: uni230B.big4
Encoding: 40 -1 40
Width: 530
Flags: HW
HStem: -972 86<90 354>
VStem: 354 86<-886 1615>
LayerCount: 2
Fore
SplineSet
440 -972 m 1
 90 -972 l 1
 90 -886 l 1
 354 -886 l 1
 354 1615 l 1
 440 1615 l 1
 440 -972 l 1
EndSplineSet
EndChar

StartChar: uni230B.big5
Encoding: 41 -1 41
Width: 566
Flags: HW
HStem: -1290 86<90 390>
VStem: 390 86<-1204 1933>
LayerCount: 2
Fore
SplineSet
476 -1290 m 1
 90 -1290 l 1
 90 -1204 l 1
 390 -1204 l 1
 390 1933 l 1
 476 1933 l 1
 476 -1290 l 1
EndSplineSet
EndChar

StartChar: uni2308
Encoding: 42 8968 42
Width: 446
Flags: HW
HStem: 744 86<176 356>
VStem: 90 86<-273 744>
LayerCount: 2
Fore
SplineSet
176 -273 m 1
 90 -273 l 1
 90 830 l 1
 356 830 l 1
 356 744 l 1
 176 744 l 1
 176 -273 l 1
EndSplineSet
EndChar

StartChar: uni2308.big1
Encoding: 43 -1 43
Width: 458
Flags: HW
HStem: 850 86<176 368>
VStem: 90 86<-379 850>
LayerCount: 2
Fore
SplineSet
176 -379 m 1
 90 -379 l 1
 90 936 l 1
 368 936 l 1
 368 850 l 1
 176 850 l 1
 176 -379 l 1
EndSplineSet
EndChar

StartChar: uni2308.big2
Encoding: 44 -1 44
Width: 476
Flags: HW
HStem: 1009 86<176 386>
VStem: 90 86<-538 1009>
LayerCount: 2
Fore
SplineSet
176 -538 m 1
 90 -538 l 1
 90 1095 l 1
 386 1095 l 1
 386 1009 l 1
 176 1009 l 1
 176 -538 l 1
EndSplineSet
EndChar

StartChar: uni2308.big3
Encoding: 45 -1 45
Width: 494
Flags: HW
HStem: 1168 86<176 404>
VStem: 90 86<-697 1168>
LayerCount: 2
Fore
SplineSet
176 -697 m 1
 90 -697 l 1
 90 1254 l 1
 404 1254 l 1
 404 1168 l 1
 176 1168 l 1
 176 -697 l 1
EndSplineSet
EndChar

StartChar: uni2308.big4
Encoding: 46 -1 46
Width: 530
Flags: HW
HStem: 1486 86<176 440>
VStem: 90 86<-1015 1486>
LayerCount: 2
Fore
SplineSet
176 -1015 m 1
 90 -1015 l 1
 90 1572 l 1
 440 1572 l 1
 440 1486 l 1
 176 1486 l 1
 176 -1015 l 1
EndSplineSet
EndChar

StartChar: uni2308.big5
Encoding: 47 -1 47
Width: 566
Flags: HW
HStem: 1804 86<176 476>
VStem: 90 86<-1333 1804>
LayerCount: 2
Fore
SplineSet
176 -1333 m 1
 90 -1333 l 1
 90 1890 l 1
 476 1890 l 1
 476 1804 l 1
 176 1804 l 1
 176 -1333 l 1
EndSplineSet
EndChar

StartChar: uni2309
Encoding: 48 8969 48
Width: 446
Flags: HW
HStem: 744 86<90 270>
VStem: 270 86<-273 744>
LayerCount: 2
Fore
SplineSet
356 830 m 1
 356 -273 l 1
 270 -273 l 1
 270 744 l 1
 90 744 l 1
 90 830 l 1
 356 830 l 1
EndSplineSet
EndChar

StartChar: uni2309.big1
Encoding: 49 -1 49
Width: 458
Flags: HW
HStem: 850 86<90 282>
VStem: 282 86<-379 850>
LayerCount: 2
Fore
SplineSet
368 936 m 1
 368 -379 l 1
 282 -379 l 1
 282 850 l 1
 90 850 l 1
 90 936 l 1
 368 936 l 1
EndSplineSet
EndChar

StartChar: uni2309.big2
Encoding: 50 -1 50
Width: 476
Flags: HW
HStem: 1009 86<90 300>
VStem: 300 86<-538 1009>
LayerCount: 2
Fore
SplineSet
386 1095 m 1
 386 -538 l 1
 300 -538 l 1
 300 1009 l 1
 90 1009 l 1
 90 1095 l 1
 386 1095 l 1
EndSplineSet
EndChar

StartChar: uni2309.big3
Encoding: 51 -1 51
Width: 494
Flags: HW
HStem: 1168 86<90 318>
VStem: 318 86<-697 1168>
LayerCount: 2
Fore
SplineSet
404 1254 m 1
 404 -697 l 1
 318 -697 l 1
 318 1168 l 1
 90 1168 l 1
 90 1254 l 1
 404 1254 l 1
EndSplineSet
EndChar

StartChar: uni2309.big4
Encoding: 52 -1 52
Width: 530
Flags: HW
HStem: 1486 86<90 354>
VStem: 354 86<-1015 1486>
LayerCount: 2
Fore
SplineSet
440 1572 m 1
 440 -1015 l 1
 354 -1015 l 1
 354 1486 l 1
 90 1486 l 1
 90 1572 l 1
 440 1572 l 1
EndSplineSet
EndChar

StartChar: uni2309.big5
Encoding: 53 -1 53
Width: 566
Flags: HW
HStem: 1804 86<90 390>
VStem: 390 86<-1333 1804>
LayerCount: 2
Fore
SplineSet
476 1890 m 1
 476 -1333 l 1
 390 -1333 l 1
 390 1804 l 1
 90 1804 l 1
 90 1890 l 1
 476 1890 l 1
EndSplineSet
EndChar

StartChar: uni231C
Encoding: 54 8988 54
Width: 446
Flags: HW
HStem: 744 86<176 356>
VStem: 90 86<564 744>
LayerCount: 2
Fore
SplineSet
90 830 m 1
 356 830 l 1
 356 744 l 1
 176 744 l 1
 176 564 l 1
 90 564 l 1
 90 830 l 1
EndSplineSet
EndChar

StartChar: uni231C.big1
Encoding: 55 -1 55
Width: 458
Flags: HW
HStem: 850 86<176 368>
VStem: 90 86<658 850>
LayerCount: 2
Fore
SplineSet
90 936 m 1
 368 936 l 1
 368 850 l 1
 176 850 l 1
 176 658 l 1
 90 658 l 1
 90 936 l 1
EndSplineSet
EndChar

StartChar: uni231C.big2
Encoding: 56 -1 56
Width: 476
Flags: HW
HStem: 1009 86<176 386>
VStem: 90 86<799 1009>
LayerCount: 2
Fore
SplineSet
90 1095 m 1
 386 1095 l 1
 386 1009 l 1
 176 1009 l 1
 176 799 l 1
 90 799 l 1
 90 1095 l 1
EndSplineSet
EndChar

StartChar: uni231C.big3
Encoding: 57 -1 57
Width: 494
Flags: HW
HStem: 1168 86<176 404>
VStem: 90 86<940 1168>
LayerCount: 2
Fore
SplineSet
90 1254 m 1
 404 1254 l 1
 404 1168 l 1
 176 1168 l 1
 176 940 l 1
 90 940 l 1
 90 1254 l 1
EndSplineSet
EndChar

StartChar: uni231C.big4
Encoding: 58 -1 58
Width: 530
Flags: HW
HStem: 1486 86<176 440>
VStem: 90 86<1222 1486>
LayerCount: 2
Fore
SplineSet
90 1572 m 1
 440 1572 l 1
 440 1486 l 1
 176 1486 l 1
 176 1222 l 1
 90 1222 l 1
 90 1572 l 1
EndSplineSet
EndChar

StartChar: uni231C.big5
Encoding: 59 -1 59
Width: 566
Flags: HW
HStem: 1804 86<176 476>
VStem: 90 86<1504 1804>
LayerCount: 2
Fore
SplineSet
90 1890 m 1
 476 1890 l 1
 476 1804 l 1
 176 1804 l 1
 176 1504 l 1
 90 1504 l 1
 90 1890 l 1
EndSplineSet
EndChar

StartChar: uni231D
Encoding: 60 8989 60
Width: 446
Flags: HW
HStem: 744 86<90 270>
VStem: 270 86<564 744>
LayerCount: 2
Fore
SplineSet
270 744 m 1
 90 744 l 1
 90 830 l 1
 356 830 l 1
 356 564 l 1
 270 564 l 1
 270 744 l 1
EndSplineSet
EndChar

StartChar: uni231D.big1
Encoding: 61 -1 61
Width: 458
Flags: HW
HStem: 850 86<90 282>
VStem: 282 86<658 850>
LayerCount: 2
Fore
SplineSet
282 850 m 1
 90 850 l 1
 90 936 l 1
 368 936 l 1
 368 658 l 1
 282 658 l 1
 282 850 l 1
EndSplineSet
EndChar

StartChar: uni231D.big2
Encoding: 62 -1 62
Width: 476
Flags: HW
HStem: 1009 86<90 300>
VStem: 300 86<799 1009>
LayerCount: 2
Fore
SplineSet
300 1009 m 1
 90 1009 l 1
 90 1095 l 1
 386 1095 l 1
 386 799 l 1
 300 799 l 1
 300 1009 l 1
EndSplineSet
EndChar

StartChar: uni231D.big3
Encoding: 63 -1 63
Width: 494
Flags: HW
HStem: 1168 86<90 318>
VStem: 318 86<940 1168>
LayerCount: 2
Fore
SplineSet
318 1168 m 1
 90 1168 l 1
 90 1254 l 1
 404 1254 l 1
 404 940 l 1
 318 940 l 1
 318 1168 l 1
EndSplineSet
EndChar

StartChar: uni231D.big4
Encoding: 64 -1 64
Width: 530
Flags: HW
HStem: 1486 86<90 354>
VStem: 354 86<1222 1486>
LayerCount: 2
Fore
SplineSet
354 1486 m 1
 90 1486 l 1
 90 1572 l 1
 440 1572 l 1
 440 1222 l 1
 354 1222 l 1
 354 1486 l 1
EndSplineSet
EndChar

StartChar: uni231D.big5
Encoding: 65 -1 65
Width: 566
Flags: HW
HStem: 1804 86<90 390>
VStem: 390 86<1504 1804>
LayerCount: 2
Fore
SplineSet
390 1804 m 1
 90 1804 l 1
 90 1890 l 1
 476 1890 l 1
 476 1504 l 1
 390 1504 l 1
 390 1804 l 1
EndSplineSet
EndChar

StartChar: uni231E
Encoding: 66 8990 66
Width: 446
Flags: HW
HStem: -230 86<176 356>
VStem: 90 86<-144 36>
LayerCount: 2
Fore
SplineSet
176 -144 m 1
 356 -144 l 1
 356 -230 l 1
 90 -230 l 1
 90 36 l 1
 176 36 l 1
 176 -144 l 1
EndSplineSet
EndChar

StartChar: uni231E.big1
Encoding: 67 -1 67
Width: 458
Flags: HW
HStem: -336 86<176 368>
VStem: 90 86<-250 -58>
LayerCount: 2
Fore
SplineSet
176 -250 m 1
 368 -250 l 1
 368 -336 l 1
 90 -336 l 1
 90 -58 l 1
 176 -58 l 1
 176 -250 l 1
EndSplineSet
EndChar

StartChar: uni231E.big2
Encoding: 68 -1 68
Width: 476
Flags: HW
HStem: -495 86<176 386>
VStem: 90 86<-409 -199>
LayerCount: 2
Fore
SplineSet
176 -409 m 1
 386 -409 l 1
 386 -495 l 1
 90 -495 l 1
 90 -199 l 1
 176 -199 l 1
 176 -409 l 1
EndSplineSet
EndChar

StartChar: uni231E.big3
Encoding: 69 -1 69
Width: 494
Flags: HW
HStem: -654 86<176 404>
VStem: 90 86<-568 -340>
LayerCount: 2
Fore
SplineSet
176 -568 m 1
 404 -568 l 1
 404 -654 l 1
 90 -654 l 1
 90 -340 l 1
 176 -340 l 1
 176 -568 l 1
EndSplineSet
EndChar

StartChar: uni231E.big4
Encoding: 70 -1 70
Width: 530
Flags: HW
HStem: -972 86<176 440>
VStem: 90 86<-886 -622>
LayerCount: 2
Fore
SplineSet
176 -886 m 1
 440 -886 l 1
 440 -972 l 1
 90 -972 l 1
 90 -622 l 1
 176 -622 l 1
 176 -886 l 1
EndSplineSet
EndChar

StartChar: uni231E.big5
Encoding: 71 -1 71
Width: 566
Flags: HW
HStem: -1290 86<176 476>
VStem: 90 86<-1204 -904>
LayerCount: 2
Fore
SplineSet
176 -1204 m 1
 476 -1204 l 1
 476 -1290 l 1
 90 -1290 l 1
 90 -904 l 1
 176 -904 l 1
 176 -1204 l 1
EndSplineSet
EndChar

StartChar: uni231F
Encoding: 72 8991 72
Width: 446
Flags: HW
HStem: -230 86<90 270>
VStem: 270 86<-144 36>
LayerCount: 2
Fore
SplineSet
356 -230 m 1
 90 -230 l 1
 90 -144 l 1
 270 -144 l 1
 270 36 l 1
 356 36 l 1
 356 -230 l 1
EndSplineSet
EndChar

StartChar: uni231F.big1
Encoding: 73 -1 73
Width: 458
Flags: HW
HStem: -336 86<90 282>
VStem: 282 86<-250 -58>
LayerCount: 2
Fore
SplineSet
368 -336 m 1
 90 -336 l 1
 90 -250 l 1
 282 -250 l 1
 282 -58 l 1
 368 -58 l 1
 368 -336 l 1
EndSplineSet
EndChar

StartChar: uni231F.big2
Encoding: 74 -1 74
Width: 476
Flags: HW
HStem: -495 86<90 300>
VStem: 300 86<-409 -199>
LayerCount: 2
Fore
SplineSet
386 -495 m 1
 90 -495 l 1
 90 -409 l 1
 300 -409 l 1
 300 -199 l 1
 386 -199 l 1
 386 -495 l 1
EndSplineSet
EndChar

StartChar: uni231F.big3
Encoding: 75 -1 75
Width: 494
Flags: HW
HStem: -654 86<90 318>
VStem: 318 86<-568 -340>
LayerCount: 2
Fore
SplineSet
404 -654 m 1
 90 -654 l 1
 90 -568 l 1
 318 -568 l 1
 318 -340 l 1
 404 -340 l 1
 404 -654 l 1
EndSplineSet
EndChar

StartChar: uni231F.big4
Encoding: 76 -1 76
Width: 530
Flags: HW
HStem: -972 86<90 354>
VStem: 354 86<-886 -622>
LayerCount: 2
Fore
SplineSet
440 -972 m 1
 90 -972 l 1
 90 -886 l 1
 354 -886 l 1
 354 -622 l 1
 440 -622 l 1
 440 -972 l 1
EndSplineSet
EndChar

StartChar: uni231F.big5
Encoding: 77 -1 77
Width: 566
Flags: HW
HStem: -1290 86<90 390>
VStem: 390 86<-1204 -904>
LayerCount: 2
Fore
SplineSet
476 -1290 m 1
 90 -1290 l 1
 90 -1204 l 1
 390 -1204 l 1
 390 -904 l 1
 476 -904 l 1
 476 -1290 l 1
EndSplineSet
EndChar

StartChar: sym0A0
Encoding: 78 -1 78
Width: 446
Flags: HW
HStem: -230 86<176 356> 744 86<176 356>
VStem: 90 266<-230 -144 744 830> 90 86<-144 36 564 744>
LayerCount: 2
Fore
SplineSet
176 -144 m 1xd0
 356 -144 l 1
 356 -230 l 1
 90 -230 l 1xe0
 90 36 l 1
 176 36 l 1
 176 -144 l 1xd0
90 830 m 1
 356 830 l 1
 356 744 l 1xe0
 176 744 l 1
 176 564 l 1
 90 564 l 1xd0
 90 830 l 1
EndSplineSet
EndChar

StartChar: sym0A0.big1
Encoding: 79 -1 79
Width: 458
Flags: HW
HStem: -336 86<176 368> 850 86<176 368>
VStem: 90 86<-250 -58 658 850>
LayerCount: 2
Fore
SplineSet
176 -250 m 1
 368 -250 l 1
 368 -336 l 1
 90 -336 l 1
 90 -58 l 1
 176 -58 l 1
 176 -250 l 1
90 936 m 1
 368 936 l 1
 368 850 l 1
 176 850 l 1
 176 658 l 1
 90 658 l 1
 90 936 l 1
EndSplineSet
EndChar

StartChar: sym0A0.big2
Encoding: 80 -1 80
Width: 476
Flags: HW
HStem: -495 86<176 386> 1009 86<176 386>
VStem: 90 86<-409 -199 799 1009>
LayerCount: 2
Fore
SplineSet
176 -409 m 1
 386 -409 l 1
 386 -495 l 1
 90 -495 l 1
 90 -199 l 1
 176 -199 l 1
 176 -409 l 1
90 1095 m 1
 386 1095 l 1
 386 1009 l 1
 176 1009 l 1
 176 799 l 1
 90 799 l 1
 90 1095 l 1
EndSplineSet
EndChar

StartChar: sym0A0.big3
Encoding: 81 -1 81
Width: 494
Flags: HW
HStem: -654 86<176 404> 1168 86<176 404>
VStem: 90 86<-568 -340 940 1168>
LayerCount: 2
Fore
SplineSet
176 -568 m 1
 404 -568 l 1
 404 -654 l 1
 90 -654 l 1
 90 -340 l 1
 176 -340 l 1
 176 -568 l 1
90 1254 m 1
 404 1254 l 1
 404 1168 l 1
 176 1168 l 1
 176 940 l 1
 90 940 l 1
 90 1254 l 1
EndSplineSet
EndChar

StartChar: sym0A0.big4
Encoding: 82 -1 82
Width: 530
Flags: HW
HStem: -972 86<176 440> 1486 86<176 440>
VStem: 90 86<-886 -622 1222 1486>
LayerCount: 2
Fore
SplineSet
176 -886 m 1
 440 -886 l 1
 440 -972 l 1
 90 -972 l 1
 90 -622 l 1
 176 -622 l 1
 176 -886 l 1
90 1572 m 1
 440 1572 l 1
 440 1486 l 1
 176 1486 l 1
 176 1222 l 1
 90 1222 l 1
 90 1572 l 1
EndSplineSet
EndChar

StartChar: sym0A0.big5
Encoding: 83 -1 83
Width: 566
Flags: HW
HStem: -1290 86<176 476> 1804 86<176 476>
VStem: 90 86<-1204 -904 1504 1804>
LayerCount: 2
Fore
SplineSet
176 -1204 m 1
 476 -1204 l 1
 476 -1290 l 1
 90 -1290 l 1
 90 -904 l 1
 176 -904 l 1
 176 -1204 l 1
90 1890 m 1
 476 1890 l 1
 476 1804 l 1
 176 1804 l 1
 176 1504 l 1
 90 1504 l 1
 90 1890 l 1
EndSplineSet
EndChar

StartChar: sym0A1
Encoding: 84 -1 84
Width: 446
Flags: HW
HStem: -230 86<90 270> 744 86<90 270>
VStem: 90 266<-230 -144 744 830> 270 86<-144 36 564 744>
LayerCount: 2
Fore
SplineSet
356 -230 m 1xe0
 90 -230 l 1
 90 -144 l 1xe0
 270 -144 l 1
 270 36 l 1
 356 36 l 1xd0
 356 -230 l 1xe0
270 744 m 1xd0
 90 744 l 1
 90 830 l 1
 356 830 l 1xe0
 356 564 l 1
 270 564 l 1
 270 744 l 1xd0
EndSplineSet
EndChar

StartChar: sym0A1.big1
Encoding: 85 -1 85
Width: 458
Flags: HW
HStem: -336 86<90 282> 850 86<90 282>
VStem: 282 86<-250 -58 658 850>
LayerCount: 2
Fore
SplineSet
368 -336 m 1
 90 -336 l 1
 90 -250 l 1
 282 -250 l 1
 282 -58 l 1
 368 -58 l 1
 368 -336 l 1
282 850 m 1
 90 850 l 1
 90 936 l 1
 368 936 l 1
 368 658 l 1
 282 658 l 1
 282 850 l 1
EndSplineSet
EndChar

StartChar: sym0A1.big2
Encoding: 86 -1 86
Width: 476
Flags: HW
HStem: -495 86<90 300> 1009 86<90 300>
VStem: 300 86<-409 -199 799 1009>
LayerCount: 2
Fore
SplineSet
386 -495 m 1
 90 -495 l 1
 90 -409 l 1
 300 -409 l 1
 300 -199 l 1
 386 -199 l 1
 386 -495 l 1
300 1009 m 1
 90 1009 l 1
 90 1095 l 1
 386 1095 l 1
 386 799 l 1
 300 799 l 1
 300 1009 l 1
EndSplineSet
EndChar

StartChar: sym0A1.big3
Encoding: 87 -1 87
Width: 494
Flags: HW
HStem: -654 86<90 318> 1168 86<90 318>
VStem: 318 86<-568 -340 940 1168>
LayerCount: 2
Fore
SplineSet
404 -654 m 1
 90 -654 l 1
 90 -568 l 1
 318 -568 l 1
 318 -340 l 1
 404 -340 l 1
 404 -654 l 1
318 1168 m 1
 90 1168 l 1
 90 1254 l 1
 404 1254 l 1
 404 940 l 1
 318 940 l 1
 318 1168 l 1
EndSplineSet
EndChar

StartChar: sym0A1.big4
Encoding: 88 -1 88
Width: 530
Flags: HW
HStem: -972 86<90 354> 1486 86<90 354>
VStem: 354 86<-886 -622 1222 1486>
LayerCount: 2
Fore
SplineSet
440 -972 m 1
 90 -972 l 1
 90 -886 l 1
 354 -886 l 1
 354 -622 l 1
 440 -622 l 1
 440 -972 l 1
354 1486 m 1
 90 1486 l 1
 90 1572 l 1
 440 1572 l 1
 440 1222 l 1
 354 1222 l 1
 354 1486 l 1
EndSplineSet
EndChar

StartChar: sym0A1.big5
Encoding: 89 -1 89
Width: 566
Flags: HW
HStem: -1290 86<90 390> 1804 86<90 390>
VStem: 390 86<-1204 -904 1504 1804>
LayerCount: 2
Fore
SplineSet
476 -1290 m 1
 90 -1290 l 1
 90 -1204 l 1
 390 -1204 l 1
 390 -904 l 1
 476 -904 l 1
 476 -1290 l 1
390 1804 m 1
 90 1804 l 1
 90 1890 l 1
 476 1890 l 1
 476 1504 l 1
 390 1504 l 1
 390 1804 l 1
EndSplineSet
EndChar

StartChar: uni23A1
Encoding: 90 9121 90
Width: 566
Flags: HW
HStem: 532 86<176 476>
VStem: 90 86<-61 532>
LayerCount: 2
Fore
SplineSet
176 -61 m 1
 90 -61 l 1
 90 618 l 1
 476 618 l 1
 476 532 l 1
 176 532 l 1
 176 -61 l 1
EndSplineSet
EndChar

StartChar: uni23A4
Encoding: 91 9124 91
Width: 566
Flags: HW
HStem: 532 86<90 390>
VStem: 390 86<-61 532>
LayerCount: 2
Fore
SplineSet
476 618 m 1
 476 -61 l 1
 390 -61 l 1
 390 532 l 1
 90 532 l 1
 90 618 l 1
 476 618 l 1
EndSplineSet
EndChar

StartChar: uni23A3
Encoding: 92 9123 92
Width: 566
Flags: HW
HStem: -18 86<176 476>
VStem: 90 86<68 661>
LayerCount: 2
Fore
SplineSet
176 68 m 1
 476 68 l 1
 476 -18 l 1
 90 -18 l 1
 90 661 l 1
 176 661 l 1
 176 68 l 1
EndSplineSet
EndChar

StartChar: uni23A6
Encoding: 93 9126 93
Width: 566
Flags: HW
HStem: -18 86<90 390>
VStem: 390 86<68 661>
LayerCount: 2
Fore
SplineSet
476 -18 m 1
 90 -18 l 1
 90 68 l 1
 390 68 l 1
 390 661 l 1
 476 661 l 1
 476 -18 l 1
EndSplineSet
EndChar

StartChar: uni23A2
Encoding: 94 9122 94
Width: 566
Flags: HW
VStem: 90 86<98 502>
LayerCount: 2
Fore
SplineSet
176 98 m 1
 90 98 l 1
 90 502 l 1
 176 502 l 1
 176 98 l 1
EndSplineSet
EndChar

StartChar: uni23A5
Encoding: 95 9125 95
Width: 566
Flags: HW
VStem: 390 86<98 502>
LayerCount: 2
Fore
SplineSet
390 98 m 1
 390 502 l 1
 476 502 l 1
 476 98 l 1
 390 98 l 1
EndSplineSet
EndChar

StartChar: uni27E6
Encoding: 96 10214 96
Width: 532
Flags: HW
HStem: -230 86<176 266 352 442> 744 86<176 266 352 442>
VStem: 90 86<-144 744> 266 86<-144 744>
LayerCount: 2
Fore
SplineSet
266 -144 m 1
 266 744 l 1
 176 744 l 1
 176 -144 l 1
 266 -144 l 1
442 -230 m 1
 90 -230 l 1
 90 830 l 1
 442 830 l 1
 442 744 l 1
 352 744 l 1
 352 -144 l 1
 442 -144 l 1
 442 -230 l 1
EndSplineSet
EndChar

StartChar: uni27E6.big1
Encoding: 97 -1 97
Width: 544
Flags: HW
HStem: -336 86<176 272 358 454> 850 86<176 272 358 454>
VStem: 90 86<-250 850> 272 86<-250 850>
LayerCount: 2
Fore
SplineSet
272 -250 m 1
 272 850 l 1
 176 850 l 1
 176 -250 l 1
 272 -250 l 1
454 -336 m 1
 90 -336 l 1
 90 936 l 1
 454 936 l 1
 454 850 l 1
 358 850 l 1
 358 -250 l 1
 454 -250 l 1
 454 -336 l 1
EndSplineSet
EndChar

StartChar: uni27E6.big2
Encoding: 98 -1 98
Width: 562
Flags: HW
HStem: -495 86<176 281 367 472> 1009 86<176 281 367 472>
VStem: 90 86<-409 1009> 281 86<-409 1009>
LayerCount: 2
Fore
SplineSet
281 -409 m 1
 281 1009 l 1
 176 1009 l 1
 176 -409 l 1
 281 -409 l 1
472 -495 m 1
 90 -495 l 1
 90 1095 l 1
 472 1095 l 1
 472 1009 l 1
 367 1009 l 1
 367 -409 l 1
 472 -409 l 1
 472 -495 l 1
EndSplineSet
EndChar

StartChar: uni27E6.big3
Encoding: 99 -1 99
Width: 580
Flags: HW
HStem: -654 86<176 290 376 490> 1168 86<176 290 376 490>
VStem: 90 86<-568 1168> 290 86<-568 1168>
LayerCount: 2
Fore
SplineSet
290 -568 m 1
 290 1168 l 1
 176 1168 l 1
 176 -568 l 1
 290 -568 l 1
490 -654 m 1
 90 -654 l 1
 90 1254 l 1
 490 1254 l 1
 490 1168 l 1
 376 1168 l 1
 376 -568 l 1
 490 -568 l 1
 490 -654 l 1
EndSplineSet
EndChar

StartChar: uni27E6.big4
Encoding: 100 -1 100
Width: 616
Flags: HW
HStem: -972 86<176 308 394 526> 1486 86<176 308 394 526>
VStem: 90 86<-886 1486> 308 86<-886 1486>
LayerCount: 2
Fore
SplineSet
308 -886 m 1
 308 1486 l 1
 176 1486 l 1
 176 -886 l 1
 308 -886 l 1
526 -972 m 1
 90 -972 l 1
 90 1572 l 1
 526 1572 l 1
 526 1486 l 1
 394 1486 l 1
 394 -886 l 1
 526 -886 l 1
 526 -972 l 1
EndSplineSet
EndChar

StartChar: uni27E6.big5
Encoding: 101 -1 101
Width: 652
Flags: HW
HStem: -1290 86<176 326 412 562> 1804 86<176 326 412 562>
VStem: 90 86<-1204 1804> 326 86<-1204 1804>
LayerCount: 2
Fore
SplineSet
326 -1204 m 1
 326 1804 l 1
 176 1804 l 1
 176 -1204 l 1
 326 -1204 l 1
562 -1290 m 1
 90 -1290 l 1
 90 1890 l 1
 562 1890 l 1
 562 1804 l 1
 412 1804 l 1
 412 -1204 l 1
 562 -1204 l 1
 562 -1290 l 1
EndSplineSet
EndChar

StartChar: uni27E7
Encoding: 102 10215 102
Width: 532
Flags: HW
HStem: -230 86<90 180 266 356> 744 86<90 180 266 356>
VStem: 180 86<-144 744> 356 86<-144 744>
LayerCount: 2
Fore
SplineSet
266 -144 m 1
 356 -144 l 1
 356 744 l 1
 266 744 l 1
 266 -144 l 1
180 -144 m 1
 180 744 l 1
 90 744 l 1
 90 830 l 1
 442 830 l 1
 442 -230 l 1
 90 -230 l 1
 90 -144 l 1
 180 -144 l 1
EndSplineSet
EndChar

StartChar: uni27E7.big1
Encoding: 103 -1 103
Width: 544
Flags: HW
HStem: -336 86<90 186 272 368> 850 86<90 186 272 368>
VStem: 186 86<-250 850> 368 86<-250 850>
LayerCount: 2
Fore
SplineSet
272 -250 m 1
 368 -250 l 1
 368 850 l 1
 272 850 l 1
 272 -250 l 1
186 -250 m 1
 186 850 l 1
 90 850 l 1
 90 936 l 1
 454 936 l 1
 454 -336 l 1
 90 -336 l 1
 90 -250 l 1
 186 -250 l 1
EndSplineSet
EndChar

StartChar: uni27E7.big2
Encoding: 104 -1 104
Width: 562
Flags: HW
HStem: -495 86<90 195 281 386> 1009 86<90 195 281 386>
VStem: 195 86<-409 1009> 386 86<-409 1009>
LayerCount: 2
Fore
SplineSet
281 -409 m 1
 386 -409 l 1
 386 1009 l 1
 281 1009 l 1
 281 -409 l 1
195 -409 m 1
 195 1009 l 1
 90 1009 l 1
 90 1095 l 1
 472 1095 l 1
 472 -495 l 1
 90 -495 l 1
 90 -409 l 1
 195 -409 l 1
EndSplineSet
EndChar

StartChar: uni27E7.big3
Encoding: 105 -1 105
Width: 580
Flags: HW
HStem: -654 86<90 204 290 404> 1168 86<90 204 290 404>
VStem: 204 86<-568 1168> 404 86<-568 1168>
LayerCount: 2
Fore
SplineSet
290 -568 m 1
 404 -568 l 1
 404 1168 l 1
 290 1168 l 1
 290 -568 l 1
204 -568 m 1
 204 1168 l 1
 90 1168 l 1
 90 1254 l 1
 490 1254 l 1
 490 -654 l 1
 90 -654 l 1
 90 -568 l 1
 204 -568 l 1
EndSplineSet
EndChar

StartChar: uni27E7.big4
Encoding: 106 -1 106
Width: 616
Flags: HW
HStem: -972 86<90 222 308 440> 1486 86<90 222 308 440>
VStem: 222 86<-886 1486> 440 86<-886 1486>
LayerCount: 2
Fore
SplineSet
308 -886 m 1
 440 -886 l 1
 440 1486 l 1
 308 1486 l 1
 308 -886 l 1
222 -886 m 1
 222 1486 l 1
 90 1486 l 1
 90 1572 l 1
 526 1572 l 1
 526 -972 l 1
 90 -972 l 1
 90 -886 l 1
 222 -886 l 1
EndSplineSet
EndChar

StartChar: uni27E7.big5
Encoding: 107 -1 107
Width: 652
Flags: HW
HStem: -1290 86<90 240 326 476> 1804 86<90 240 326 476>
VStem: 240 86<-1204 1804> 476 86<-1204 1804>
LayerCount: 2
Fore
SplineSet
326 -1204 m 1
 476 -1204 l 1
 476 1804 l 1
 326 1804 l 1
 326 -1204 l 1
240 -1204 m 1
 240 1804 l 1
 90 1804 l 1
 90 1890 l 1
 562 1890 l 1
 562 -1290 l 1
 90 -1290 l 1
 90 -1204 l 1
 240 -1204 l 1
EndSplineSet
EndChar

StartChar: sym0A2
Encoding: 108 -1 108
Width: 652
Flags: HW
HStem: 532 86<176 326 412 562>
VStem: 90 86<-61 532> 326 86<-61 532>
LayerCount: 2
Fore
SplineSet
412 -61 m 1
 326 -61 l 1
 326 532 l 1
 176 532 l 1
 176 -61 l 1
 90 -61 l 1
 90 618 l 1
 562 618 l 1
 562 532 l 1
 412 532 l 1
 412 -61 l 1
EndSplineSet
EndChar

StartChar: sym0A5
Encoding: 109 -1 109
Width: 652
Flags: HW
HStem: 532 86<90 240 326 476>
VStem: 240 86<-61 532> 476 86<-61 532>
LayerCount: 2
Fore
SplineSet
326 -61 m 1
 240 -61 l 1
 240 532 l 1
 90 532 l 1
 90 618 l 1
 562 618 l 1
 562 -61 l 1
 476 -61 l 1
 476 532 l 1
 326 532 l 1
 326 -61 l 1
EndSplineSet
EndChar

StartChar: sym0A4
Encoding: 110 -1 110
Width: 652
Flags: HW
HStem: -18 86<176 326 412 562>
VStem: 90 86<68 661> 326 86<68 661>
LayerCount: 2
Fore
SplineSet
562 -18 m 1
 90 -18 l 1
 90 661 l 1
 176 661 l 1
 176 68 l 1
 326 68 l 1
 326 661 l 1
 412 661 l 1
 412 68 l 1
 562 68 l 1
 562 -18 l 1
EndSplineSet
EndChar

StartChar: sym0A7
Encoding: 111 -1 111
Width: 652
Flags: HW
HStem: -18 86<90 240 326 476>
VStem: 240 86<68 661> 476 86<68 661>
LayerCount: 2
Fore
SplineSet
240 68 m 1
 240 661 l 1
 326 661 l 1
 326 68 l 1
 476 68 l 1
 476 661 l 1
 562 661 l 1
 562 -18 l 1
 90 -18 l 1
 90 68 l 1
 240 68 l 1
EndSplineSet
EndChar

StartChar: sym0A3
Encoding: 112 -1 112
Width: 566
Flags: HW
VStem: 90 86<98 502> 283 86<98 502>
LayerCount: 2
Fore
SplineSet
176 98 m 1
 90 98 l 1
 90 502 l 1
 176 502 l 1
 176 98 l 1
369 98 m 1
 283 98 l 1
 283 502 l 1
 369 502 l 1
 369 98 l 1
EndSplineSet
EndChar

StartChar: sym0A6
Encoding: 113 -1 113
Width: 566
Flags: HW
VStem: 197 86<98 502> 390 86<98 502>
LayerCount: 2
Fore
SplineSet
390 98 m 1
 390 502 l 1
 476 502 l 1
 476 98 l 1
 390 98 l 1
283 98 m 1
 197 98 l 1
 197 502 l 1
 283 502 l 1
 283 98 l 1
EndSplineSet
EndChar

StartChar: braceleft
Encoding: 114 123 114
Width: 491
Flags: HW
HStem: -230 72<338.019 401> 261 78<90 157.005> 758 72<338.019 401>
VStem: 203 86<-110.52 214.861 385.139 710.52>
CounterMasks: 1 e0
LayerCount: 2
Fore
SplineSet
401 758 m 1
 338 758 289 705 289 640 c 2
 289 447 l 2
 289 386 259 334 212 300 c 1
 259 266 289 214 289 153 c 2
 289 -40 l 2
 289 -105 338 -158 401 -158 c 1
 401 -230 l 1
 293 -230 203 -147 203 -40 c 2
 203 153 l 2
 203 214 151 261 90 261 c 1
 90 339 l 1
 151 339 203 386 203 447 c 2
 203 640 l 2
 203 747 293 830 401 830 c 1
 401 758 l 1
EndSplineSet
EndChar

StartChar: braceleft.big1
Encoding: 115 -1 115
Width: 503
Flags: HW
HStem: -336 72<348.216 413> 261 78<90 160.46> 864 72<348.216 413>
VStem: 209 86<-209.447 212.123 387.877 809.447>
CounterMasks: 1 e0
LayerCount: 2
Fore
SplineSet
413 864 m 1
 347 864 295 809 295 742 c 2
 295 451 l 2
 295 388 263 334 214 300 c 1
 263 266 295 212 295 149 c 2
 295 -142 l 2
 295 -209 347 -264 413 -264 c 1
 413 -336 l 1
 302 -336 209 -251 209 -142 c 2
 209 149 l 2
 209 212 154 261 90 261 c 1
 90 339 l 1
 154 339 209 388 209 451 c 2
 209 742 l 2
 209 851 302 936 413 936 c 1
 413 864 l 1
EndSplineSet
EndChar

StartChar: braceleft.big2
Encoding: 116 -1 116
Width: 521
Flags: HW
HStem: -495 72<363.705 431> 261 78<90 163.361> 1023 72<363.705 431>
VStem: 218 86<-364.785 207.071 392.929 964.785>
CounterMasks: 1 e0
LayerCount: 2
Fore
SplineSet
431 1023 m 1
 360 1023 304 966 304 895 c 2
 304 457 l 2
 304 391 269 335 218 300 c 1
 269 265 304 209 304 143 c 2
 304 -295 l 2
 304 -366 360 -423 431 -423 c 1
 431 -495 l 1
 316 -495 218 -408 218 -295 c 2
 218 143 l 2
 218 210 159 261 90 261 c 1
 90 339 l 1
 159 339 218 390 218 457 c 2
 218 895 l 2
 218 1008 316 1095 431 1095 c 1
 431 1023 l 1
EndSplineSet
EndChar

StartChar: braceleft.big3
Encoding: 117 -1 117
Width: 539
Flags: HW
HStem: -654 72<378.807 449> 261 78<90 165.428> 1182 72<378.807 449>
VStem: 227 86<-520.123 202.416 397.584 1120.12>
CounterMasks: 1 e0
LayerCount: 2
Fore
SplineSet
449 1182 m 1
 374 1182 313 1123 313 1048 c 2
 313 463 l 2
 313 394 277 336 222 300 c 1
 277 264 313 206 313 137 c 2
 313 -448 l 2
 313 -523 374 -582 449 -582 c 1
 449 -654 l 1
 329 -654 227 -565 227 -448 c 2
 227 137 l 2
 227 208 163 261 90 261 c 1
 90 339 l 1
 163 339 227 392 227 463 c 2
 227 1048 l 2
 227 1165 329 1254 449 1254 c 1
 449 1182 l 1
EndSplineSet
EndChar

StartChar: braceleft.big4
Encoding: 118 -1 118
Width: 575
Flags: HW
HStem: -972 72<405.613 485> 261 78<90 171.949> 1500 72<405.613 485>
VStem: 245 86<-825.7 194.241 405.759 1425.7>
CounterMasks: 1 e0
LayerCount: 2
Fore
SplineSet
485 1500 m 1
 401 1500 331 1437 331 1354 c 2
 331 475 l 2
 331 400 290 338 229 300 c 1
 290 262 331 200 331 125 c 2
 331 -754 l 2
 331 -837 401 -900 485 -900 c 1
 485 -972 l 1
 356 -972 245 -879 245 -754 c 2
 245 125 l 2
 245 204 172 261 90 261 c 1
 90 339 l 1
 172 339 245 396 245 475 c 2
 245 1354 l 2
 245 1479 356 1572 485 1572 c 1
 485 1500 l 1
EndSplineSet
EndChar

StartChar: braceleft.big5
Encoding: 119 -1 119
Width: 611
Flags: HW
HStem: -1290 72<436.271 521> 261 78<90 177.688> 1818 72<436.271 521>
VStem: 263 86<-1136.08 184.409 415.591 1736.08>
CounterMasks: 1 e0
LayerCount: 2
Fore
SplineSet
521 1818 m 1
 428 1818 349 1750 349 1660 c 2
 349 487 l 2
 349 406 303 339 236 300 c 1
 303 261 349 194 349 113 c 2
 349 -1060 l 2
 349 -1150 428 -1218 521 -1218 c 1
 521 -1290 l 1
 383 -1290 263 -1193 263 -1060 c 2
 263 113 l 2
 263 200 181 261 90 261 c 1
 90 339 l 1
 181 339 263 400 263 487 c 2
 263 1660 l 2
 263 1793 383 1890 521 1890 c 1
 521 1818 l 1
EndSplineSet
EndChar

StartChar: braceright
Encoding: 120 125 120
Width: 491
Flags: HW
HStem: -230 72<90 153.088> 261 78<334.356 401> 758 72<90 153.088>
VStem: 203 86<-106.156 216.109 383.891 706.156>
CounterMasks: 1 e0
LayerCount: 2
Fore
SplineSet
90 -158 m 1
 153 -158 203 -105 203 -40 c 2
 203 153 l 2
 203 214 234 266 280 300 c 1
 234 334 203 386 203 447 c 2
 203 640 l 2
 203 705 153 758 90 758 c 1
 90 830 l 1
 198 830 289 747 289 640 c 2
 289 447 l 2
 289 386 340 339 401 339 c 1
 401 261 l 1
 340 261 289 214 289 153 c 2
 289 -40 l 2
 289 -147 198 -230 90 -230 c 1
 90 -158 l 1
EndSplineSet
EndChar

StartChar: braceright.big1
Encoding: 121 -1 121
Width: 503
Flags: HW
HStem: -336 72<90 154.891> 261 78<342.901 413> 864 72<90 154.891>
VStem: 209 86<-209.447 212.123 387.877 809.447>
CounterMasks: 1 e0
LayerCount: 2
Fore
SplineSet
90 -264 m 1
 156 -264 209 -209 209 -142 c 2
 209 149 l 2
 209 212 241 266 289 300 c 1
 241 334 209 388 209 451 c 2
 209 742 l 2
 209 809 156 864 90 864 c 1
 90 936 l 1
 201 936 295 851 295 742 c 2
 295 451 l 2
 295 388 349 339 413 339 c 1
 413 261 l 1
 349 261 295 212 295 149 c 2
 295 -142 l 2
 295 -251 201 -336 90 -336 c 1
 90 -264 l 1
EndSplineSet
EndChar

StartChar: braceright.big2
Encoding: 122 -1 122
Width: 521
Flags: HW
HStem: -495 72<90 157.402> 261 78<357.977 431> 1023 72<90 157.402>
VStem: 218 86<-364.785 209.771 390.229 964.785>
CounterMasks: 1 e0
LayerCount: 2
Fore
SplineSet
90 -423 m 1
 161 -423 218 -366 218 -295 c 2
 218 143 l 2
 218 209 252 265 303 300 c 1
 252 335 218 391 218 457 c 2
 218 895 l 2
 218 966 161 1023 90 1023 c 1
 90 1095 l 1
 205 1095 304 1008 304 895 c 2
 304 457 l 2
 304 390 362 339 431 339 c 1
 431 261 l 1
 362 261 304 210 304 143 c 2
 304 -295 l 2
 304 -408 205 -495 90 -495 c 1
 90 -423 l 1
EndSplineSet
EndChar

StartChar: braceright.big3
Encoding: 123 -1 123
Width: 539
Flags: HW
HStem: -654 72<90 160.3> 261 78<373.889 449> 1182 72<90 160.3>
VStem: 227 86<-520.123 203.81 396.19 1120.12>
CounterMasks: 1 e0
LayerCount: 2
Fore
SplineSet
90 -582 m 1
 165 -582 227 -523 227 -448 c 2
 227 137 l 2
 227 206 263 264 317 300 c 1
 263 336 227 394 227 463 c 2
 227 1048 l 2
 227 1123 165 1182 90 1182 c 1
 90 1254 l 1
 210 1254 313 1165 313 1048 c 2
 313 463 l 2
 313 392 376 339 449 339 c 1
 449 261 l 1
 376 261 313 208 313 137 c 2
 313 -448 l 2
 313 -565 210 -654 90 -654 c 1
 90 -582 l 1
EndSplineSet
EndChar

StartChar: braceright.big4
Encoding: 124 -1 124
Width: 575
Flags: HW
HStem: -972 72<90 169.661> 261 78<403.346 485> 1500 72<90 169.661>
VStem: 245 86<-825.7 194.241 405.759 1425.7>
CounterMasks: 1 e0
LayerCount: 2
Fore
SplineSet
90 -900 m 1
 174 -900 245 -837 245 -754 c 2
 245 125 l 2
 245 200 286 262 346 300 c 1
 286 338 245 400 245 475 c 2
 245 1354 l 2
 245 1437 174 1500 90 1500 c 1
 90 1572 l 1
 219 1572 331 1479 331 1354 c 2
 331 475 l 2
 331 396 403 339 485 339 c 1
 485 261 l 1
 403 261 331 204 331 125 c 2
 331 -754 l 2
 331 -879 219 -972 90 -972 c 1
 90 -900 l 1
EndSplineSet
EndChar

StartChar: braceright.big5
Encoding: 125 -1 125
Width: 611
Flags: HW
HStem: -1290 72<90 174.981> 261 78<433.585 521> 1818 72<90 174.981>
VStem: 263 86<-1136.08 184.409 415.591 1736.08>
CounterMasks: 1 e0
LayerCount: 2
Fore
SplineSet
90 -1218 m 1
 183 -1218 263 -1150 263 -1060 c 2
 263 113 l 2
 263 194 308 261 375 300 c 1
 308 339 263 406 263 487 c 2
 263 1660 l 2
 263 1750 183 1818 90 1818 c 1
 90 1890 l 1
 228 1890 349 1793 349 1660 c 2
 349 487 l 2
 349 400 430 339 521 339 c 1
 521 261 l 1
 430 261 349 200 349 113 c 2
 349 -1060 l 2
 349 -1193 228 -1290 90 -1290 c 1
 90 -1218 l 1
EndSplineSet
EndChar

StartChar: uni23A7
Encoding: 126 9127 126
Width: 611
Flags: HW
HStem: 546 72<436.271 521>
VStem: 263 86<-61 464.08>
LayerCount: 2
Fore
SplineSet
521 546 m 1
 428 546 349 478 349 388 c 2
 349 -61 l 1
 263 -61 l 1
 263 388 l 2
 263 521 383 618 521 618 c 1
 521 546 l 1
EndSplineSet
EndChar

StartChar: uni23AB
Encoding: 127 9131 127
Width: 611
Flags: HW
HStem: 546 72<90 174.981>
VStem: 263 86<-61 464.08>
LayerCount: 2
Fore
SplineSet
90 618 m 1
 228 618 349 521 349 388 c 2
 349 -61 l 1
 263 -61 l 1
 263 388 l 2
 263 478 183 546 90 546 c 1
 90 618 l 1
EndSplineSet
EndChar

StartChar: uni23A9
Encoding: 128 9129 128
Width: 611
Flags: HW
HStem: -18 72<436.271 521>
VStem: 263 86<135.92 661>
LayerCount: 2
Fore
SplineSet
521 -18 m 1
 383 -18 263 79 263 212 c 2
 263 661 l 1
 349 661 l 1
 349 212 l 2
 349 122 428 54 521 54 c 1
 521 -18 l 1
EndSplineSet
EndChar

StartChar: uni23AD
Encoding: 129 9133 129
Width: 611
Flags: HW
HStem: -18 72<90 174.981>
VStem: 263 86<135.92 661>
LayerCount: 2
Fore
SplineSet
90 54 m 1
 183 54 263 122 263 212 c 2
 263 661 l 1
 349 661 l 1
 349 212 l 2
 349 79 228 -18 90 -18 c 1
 90 54 l 1
EndSplineSet
EndChar

StartChar: uni23A8
Encoding: 130 9128 130
Width: 611
Flags: HW
HStem: 261 78<90 177.688>
VStem: 263 86<-61 184.409 415.591 661>
LayerCount: 2
Fore
SplineSet
349 661 m 1
 349 487 l 2
 349 406 303 339 236 300 c 1
 303 261 349 194 349 113 c 2
 349 -61 l 1
 263 -61 l 1
 263 113 l 2
 263 200 181 261 90 261 c 1
 90 339 l 1
 181 339 263 400 263 487 c 2
 263 661 l 1
 349 661 l 1
EndSplineSet
EndChar

StartChar: uni23AC
Encoding: 131 9132 131
Width: 611
Flags: HW
HStem: 261 78<433.585 521>
VStem: 263 86<-61 184.409 415.591 661>
LayerCount: 2
Fore
SplineSet
263 -61 m 1
 263 113 l 2
 263 194 308 261 375 300 c 1
 308 339 263 406 263 487 c 2
 263 661 l 1
 349 661 l 1
 349 487 l 2
 349 400 430 339 521 339 c 1
 521 261 l 1
 430 261 349 200 349 113 c 2
 349 -61 l 1
 263 -61 l 1
EndSplineSet
EndChar

StartChar: uni23AA
Encoding: 132 9130 132
Width: 611
Flags: HW
VStem: 263 86<98 502>
LayerCount: 2
Fore
SplineSet
263 502 m 1
 349 502 l 1
 349 98 l 1
 263 98 l 1
 263 502 l 1
EndSplineSet
EndChar

StartChar: uni27E8
Encoding: 133 10216 133
Width: 446
Flags: HW
VStem: 92 262
LayerCount: 2
Fore
SplineSet
354 -216 m 1
 272 -244 l 1
 92 300 l 1
 272 844 l 1
 354 816 l 1
 174 300 l 1
 354 -216 l 1
EndSplineSet
EndChar

StartChar: uni27E8.big1
Encoding: 134 -1 134
Width: 458
Flags: HW
VStem: 92 274
LayerCount: 2
Fore
SplineSet
366 -324 m 1
 284 -348 l 1
 92 300 l 1
 284 948 l 1
 366 924 l 1
 174 300 l 1
 366 -324 l 1
EndSplineSet
EndChar

StartChar: uni27E8.big2
Encoding: 135 -1 135
Width: 476
Flags: HW
VStem: 91 294
LayerCount: 2
Fore
SplineSet
385 -484 m 1
 301 -506 l 1
 91 300 l 1
 301 1106 l 1
 385 1084 l 1
 175 300 l 1
 385 -484 l 1
EndSplineSet
EndChar

StartChar: uni27E8.big3
Encoding: 136 -1 136
Width: 494
Flags: HW
VStem: 91 312
LayerCount: 2
Fore
SplineSet
403 -644 m 1
 319 -664 l 1
 91 300 l 1
 319 1264 l 1
 403 1244 l 1
 175 300 l 1
 403 -644 l 1
EndSplineSet
EndChar

StartChar: uni27E8.big4
Encoding: 137 -1 137
Width: 530
Flags: HW
VStem: 355 84<-964.5 -947.034 1547.03 1564.5>
LayerCount: 2
Fore
SplineSet
439 -963 m 1
 355 -981 l 1
 91 300 l 1
 355 1581 l 1
 439 1563 l 1
 175 300 l 1
 439 -963 l 1
EndSplineSet
EndChar

StartChar: uni27E8.big5
Encoding: 138 -1 138
Width: 566
Flags: HW
VStem: 391 84<-1283.33 -1260.71 1860.71 1883.33>
LayerCount: 2
Fore
SplineSet
475 -1282 m 1
 391 -1298 l 1
 91 300 l 1
 391 1898 l 1
 475 1882 l 1
 175 300 l 1
 475 -1282 l 1
EndSplineSet
EndChar

StartChar: uni27E9
Encoding: 139 10217 139
Width: 446
Flags: HW
VStem: 92 262
LayerCount: 2
Fore
SplineSet
174 -244 m 1
 92 -216 l 1
 272 300 l 1
 92 816 l 1
 174 844 l 1
 354 300 l 1
 174 -244 l 1
EndSplineSet
EndChar

StartChar: uni27E9.big1
Encoding: 140 -1 140
Width: 458
Flags: HW
VStem: 92 274
LayerCount: 2
Fore
SplineSet
174 -348 m 1
 92 -324 l 1
 284 300 l 1
 92 924 l 1
 174 948 l 1
 366 300 l 1
 174 -348 l 1
EndSplineSet
EndChar

StartChar: uni27E9.big2
Encoding: 141 -1 141
Width: 476
Flags: HW
VStem: 91 294
LayerCount: 2
Fore
SplineSet
175 -506 m 1
 91 -484 l 1
 301 300 l 1
 91 1084 l 1
 175 1106 l 1
 385 300 l 1
 175 -506 l 1
EndSplineSet
EndChar

StartChar: uni27E9.big3
Encoding: 142 -1 142
Width: 494
Flags: HW
VStem: 91 312
LayerCount: 2
Fore
SplineSet
175 -664 m 1
 91 -644 l 1
 319 300 l 1
 91 1244 l 1
 175 1264 l 1
 403 300 l 1
 175 -664 l 1
EndSplineSet
EndChar

StartChar: uni27E9.big4
Encoding: 143 -1 143
Width: 530
Flags: HW
LayerCount: 2
Fore
SplineSet
175 -981 m 1
 91 -963 l 1
 355 300 l 1
 91 1563 l 1
 175 1581 l 1
 439 300 l 1
 175 -981 l 1
EndSplineSet
EndChar

StartChar: uni27E9.big5
Encoding: 144 -1 144
Width: 566
Flags: HW
LayerCount: 2
Fore
SplineSet
175 -1298 m 1
 91 -1282 l 1
 391 300 l 1
 91 1882 l 1
 175 1898 l 1
 475 300 l 1
 175 -1298 l 1
EndSplineSet
EndChar

StartChar: uni27EA
Encoding: 145 10218 145
Width: 652
Flags: HW
LayerCount: 2
Fore
SplineSet
345 -217 m 1
 263 -243 l 1
 92 300 l 1
 263 843 l 1
 345 817 l 1
 174 300 l 1
 345 -217 l 1
560 -217 m 1
 478 -243 l 1
 307 300 l 1
 478 843 l 1
 560 817 l 1
 389 300 l 1
 560 -217 l 1
EndSplineSet
EndChar

StartChar: uni27EA.big1
Encoding: 146 -1 146
Width: 664
Flags: HW
LayerCount: 2
Fore
SplineSet
357 -324 m 1
 275 -348 l 1
 92 300 l 1
 275 948 l 1
 357 924 l 1
 174 300 l 1
 357 -324 l 1
572 -324 m 1
 490 -348 l 1
 307 300 l 1
 490 948 l 1
 572 924 l 1
 389 300 l 1
 572 -324 l 1
EndSplineSet
EndChar

StartChar: uni27EA.big2
Encoding: 147 -1 147
Width: 682
Flags: HW
LayerCount: 2
Fore
SplineSet
376 -484 m 1
 292 -506 l 1
 91 300 l 1
 292 1106 l 1
 376 1084 l 1
 175 300 l 1
 376 -484 l 1
591 -484 m 1
 507 -506 l 1
 306 300 l 1
 507 1106 l 1
 591 1084 l 1
 390 300 l 1
 591 -484 l 1
EndSplineSet
EndChar

StartChar: uni27EA.big3
Encoding: 148 -1 148
Width: 700
Flags: HW
VStem: 310 84<-645.667 -633.187 286.828 313.172 1233.19 1245.67>
LayerCount: 2
Fore
SplineSet
394 -644 m 1
 310 -664 l 1
 91 300 l 1
 310 1264 l 1
 394 1244 l 1
 175 300 l 1
 394 -644 l 1
609 -644 m 1
 525 -664 l 1
 306 300 l 1
 525 1264 l 1
 609 1244 l 1
 390 300 l 1
 609 -644 l 1
EndSplineSet
EndChar

StartChar: uni27EA.big4
Encoding: 149 -1 149
Width: 736
Flags: HW
VStem: 346 84<-965.333 -944.863 1544.86 1565.33> 561 84<-965.333 -944.863 1544.86 1565.33>
LayerCount: 2
Fore
SplineSet
430 -964 m 1
 346 -980 l 1
 91 300 l 1
 346 1580 l 1
 430 1564 l 1
 175 300 l 1
 430 -964 l 1
645 -964 m 1
 561 -980 l 1
 306 300 l 1
 561 1580 l 1
 645 1564 l 1
 390 300 l 1
 645 -964 l 1
EndSplineSet
EndChar

StartChar: uni27EA.big5
Encoding: 150 -1 150
Width: 772
Flags: HW
VStem: 382 84<-1283.33 -1259.56 1859.56 1883.33> 597 84<-1283.33 -1259.56 1859.56 1883.33>
LayerCount: 2
Fore
SplineSet
466 -1282 m 1
 382 -1298 l 1
 91 300 l 1
 382 1898 l 1
 466 1882 l 1
 175 300 l 1
 466 -1282 l 1
681 -1282 m 1
 597 -1298 l 1
 306 300 l 1
 597 1898 l 1
 681 1882 l 1
 390 300 l 1
 681 -1282 l 1
EndSplineSet
EndChar

StartChar: uni27EB
Encoding: 151 10219 151
Width: 652
Flags: HW
LayerCount: 2
Fore
SplineSet
174 -243 m 1
 92 -217 l 1
 263 300 l 1
 92 817 l 1
 174 843 l 1
 345 300 l 1
 174 -243 l 1
389 -243 m 1
 307 -217 l 1
 478 300 l 1
 307 817 l 1
 389 843 l 1
 560 300 l 1
 389 -243 l 1
EndSplineSet
EndChar

StartChar: uni27EB.big1
Encoding: 152 -1 152
Width: 664
Flags: HW
LayerCount: 2
Fore
SplineSet
174 -348 m 1
 92 -324 l 1
 275 300 l 1
 92 924 l 1
 174 948 l 1
 357 300 l 1
 174 -348 l 1
389 -348 m 1
 307 -324 l 1
 490 300 l 1
 307 924 l 1
 389 948 l 1
 572 300 l 1
 389 -348 l 1
EndSplineSet
EndChar

StartChar: uni27EB.big2
Encoding: 153 -1 153
Width: 682
Flags: HW
LayerCount: 2
Fore
SplineSet
175 -506 m 1
 91 -484 l 1
 292 300 l 1
 91 1084 l 1
 175 1106 l 1
 376 300 l 1
 175 -506 l 1
390 -506 m 1
 306 -484 l 1
 507 300 l 1
 306 1084 l 1
 390 1106 l 1
 591 300 l 1
 390 -506 l 1
EndSplineSet
EndChar

StartChar: uni27EB.big3
Encoding: 154 -1 154
Width: 700
Flags: HW
LayerCount: 2
Fore
SplineSet
175 -664 m 1
 91 -644 l 1
 310 300 l 1
 91 1244 l 1
 175 1264 l 1
 394 300 l 1
 175 -664 l 1
390 -664 m 1
 306 -644 l 1
 525 300 l 1
 306 1244 l 1
 390 1264 l 1
 609 300 l 1
 390 -664 l 1
EndSplineSet
EndChar

StartChar: uni27EB.big4
Encoding: 155 -1 155
Width: 736
Flags: HW
LayerCount: 2
Fore
SplineSet
175 -980 m 1
 91 -964 l 1
 346 300 l 1
 91 1564 l 1
 175 1580 l 1
 430 300 l 1
 175 -980 l 1
390 -980 m 1
 306 -964 l 1
 561 300 l 1
 306 1564 l 1
 390 1580 l 1
 645 300 l 1
 390 -980 l 1
EndSplineSet
EndChar

StartChar: uni27EB.big5
Encoding: 156 -1 156
Width: 772
Flags: HW
LayerCount: 2
Fore
SplineSet
175 -1298 m 1
 91 -1282 l 1
 382 300 l 1
 91 1882 l 1
 175 1898 l 1
 466 300 l 1
 175 -1298 l 1
390 -1298 m 1
 306 -1282 l 1
 597 300 l 1
 306 1882 l 1
 390 1898 l 1
 681 300 l 1
 390 -1298 l 1
EndSplineSet
EndChar

StartChar: uni2991
Encoding: 157 10641 157
Width: 446
Flags: HW
HStem: 229 142<250.51 320.496>
VStem: 215 141<264.512 335.488>
LayerCount: 2
Fore
SplineSet
354 -216 m 1
 272 -244 l 1
 92 300 l 1
 272 844 l 1
 354 816 l 1
 174 300 l 1
 354 -216 l 1
356 300 m 0
 356 286 340 270 328 258 c 0
 315 245 300 229 286 229 c 0
 271 229 256 245 243 258 c 0
 231 270 215 286 215 300 c 0
 215 314 231 330 243 342 c 0
 256 355 271 371 286 371 c 0
 300 371 315 355 328 342 c 0
 340 330 356 314 356 300 c 0
EndSplineSet
EndChar

StartChar: uni2991.big1
Encoding: 158 -1 158
Width: 458
Flags: HW
HStem: 229 142<262.51 332.496>
VStem: 227 141<264.512 335.488>
LayerCount: 2
Fore
SplineSet
366 -324 m 1
 284 -348 l 1
 92 300 l 1
 284 948 l 1
 366 924 l 1
 174 300 l 1
 366 -324 l 1
368 300 m 0
 368 286 352 270 340 258 c 0
 327 245 312 229 298 229 c 0
 283 229 268 245 255 258 c 0
 243 270 227 286 227 300 c 0
 227 314 243 330 255 342 c 0
 268 355 283 371 298 371 c 0
 312 371 327 355 340 342 c 0
 352 330 368 314 368 300 c 0
EndSplineSet
EndChar

StartChar: uni2991.big2
Encoding: 159 -1 159
Width: 476
Flags: HW
HStem: 229 142<280.51 350.496>
VStem: 245 141<264.512 335.488>
LayerCount: 2
Fore
SplineSet
385 -484 m 1
 301 -506 l 1
 91 300 l 1
 301 1106 l 1
 385 1084 l 1
 175 300 l 1
 385 -484 l 1
386 300 m 0
 386 286 370 270 358 258 c 0
 345 245 330 229 316 229 c 0
 301 229 286 245 273 258 c 0
 261 270 245 286 245 300 c 0
 245 314 261 330 273 342 c 0
 286 355 301 371 316 371 c 0
 330 371 345 355 358 342 c 0
 370 330 386 314 386 300 c 0
EndSplineSet
EndChar

StartChar: uni2991.big3
Encoding: 160 -1 160
Width: 494
Flags: HW
HStem: 229 142<298.51 368.496>
VStem: 263 141<264.512 335.488>
LayerCount: 2
Fore
SplineSet
403 -644 m 1
 319 -664 l 1
 91 300 l 1
 319 1264 l 1
 403 1244 l 1
 175 300 l 1
 403 -644 l 1
404 300 m 0
 404 286 388 270 376 258 c 0
 363 245 348 229 334 229 c 0
 319 229 304 245 291 258 c 0
 279 270 263 286 263 300 c 0
 263 314 279 330 291 342 c 0
 304 355 319 371 334 371 c 0
 348 371 363 355 376 342 c 0
 388 330 404 314 404 300 c 0
EndSplineSet
EndChar

StartChar: uni2991.big4
Encoding: 161 -1 161
Width: 530
Flags: HW
HStem: 229 142<334.51 404.496>
VStem: 299 141<264.512 335.488> 355 84<-964.5 -947.034 1547.03 1564.5>
LayerCount: 2
Fore
SplineSet
439 -963 m 1xa0
 355 -981 l 1
 91 300 l 1
 355 1581 l 1
 439 1563 l 1
 175 300 l 1
 439 -963 l 1xa0
440 300 m 0xc0
 440 286 424 270 412 258 c 0
 399 245 384 229 370 229 c 0
 355 229 340 245 327 258 c 0
 315 270 299 286 299 300 c 0
 299 314 315 330 327 342 c 0
 340 355 355 371 370 371 c 0
 384 371 399 355 412 342 c 0
 424 330 440 314 440 300 c 0xc0
EndSplineSet
EndChar

StartChar: uni2991.big5
Encoding: 162 -1 162
Width: 566
Flags: HW
HStem: 229 142<370.51 440.496>
VStem: 335 141<264.512 335.488> 391 84<-1283.33 -1260.71 1860.71 1883.33>
LayerCount: 2
Fore
SplineSet
475 -1282 m 1xa0
 391 -1298 l 1
 91 300 l 1
 391 1898 l 1
 475 1882 l 1
 175 300 l 1
 475 -1282 l 1xa0
476 300 m 0xc0
 476 286 460 270 448 258 c 0
 435 245 420 229 406 229 c 0
 391 229 376 245 363 258 c 0
 351 270 335 286 335 300 c 0
 335 314 351 330 363 342 c 0
 376 355 391 371 406 371 c 0
 420 371 435 355 448 342 c 0
 460 330 476 314 476 300 c 0xc0
EndSplineSet
EndChar

StartChar: uni2992
Encoding: 163 10642 163
Width: 446
Flags: HW
HStem: 229 142<125.51 195.496>
VStem: 90 141<264.512 335.488>
LayerCount: 2
Fore
SplineSet
174 -244 m 1
 92 -216 l 1
 272 300 l 1
 92 816 l 1
 174 844 l 1
 354 300 l 1
 174 -244 l 1
231 300 m 0
 231 286 215 270 203 258 c 0
 190 245 175 229 161 229 c 0
 146 229 131 245 118 258 c 0
 106 270 90 286 90 300 c 0
 90 314 106 330 118 342 c 0
 131 355 146 371 161 371 c 0
 175 371 190 355 203 342 c 0
 215 330 231 314 231 300 c 0
EndSplineSet
EndChar

StartChar: uni2992.big1
Encoding: 164 -1 164
Width: 458
Flags: HW
HStem: 229 142<125.51 195.496>
VStem: 90 141<264.512 335.488>
LayerCount: 2
Fore
SplineSet
174 -348 m 1
 92 -324 l 1
 284 300 l 1
 92 924 l 1
 174 948 l 1
 366 300 l 1
 174 -348 l 1
231 300 m 0
 231 286 215 270 203 258 c 0
 190 245 175 229 161 229 c 0
 146 229 131 245 118 258 c 0
 106 270 90 286 90 300 c 0
 90 314 106 330 118 342 c 0
 131 355 146 371 161 371 c 0
 175 371 190 355 203 342 c 0
 215 330 231 314 231 300 c 0
EndSplineSet
EndChar

StartChar: uni2992.big2
Encoding: 165 -1 165
Width: 476
Flags: HW
HStem: 229 142<125.51 195.496>
VStem: 90 141<264.512 335.488>
LayerCount: 2
Fore
SplineSet
175 -506 m 1
 91 -484 l 1
 301 300 l 1
 91 1084 l 1
 175 1106 l 1
 385 300 l 1
 175 -506 l 1
231 300 m 0
 231 286 215 270 203 258 c 0
 190 245 175 229 161 229 c 0
 146 229 131 245 118 258 c 0
 106 270 90 286 90 300 c 0
 90 314 106 330 118 342 c 0
 131 355 146 371 161 371 c 0
 175 371 190 355 203 342 c 0
 215 330 231 314 231 300 c 0
EndSplineSet
EndChar

StartChar: uni2992.big3
Encoding: 166 -1 166
Width: 494
Flags: HW
HStem: 229 142<125.51 195.496>
VStem: 90 141<264.512 335.488>
LayerCount: 2
Fore
SplineSet
175 -664 m 1
 91 -644 l 1
 319 300 l 1
 91 1244 l 1
 175 1264 l 1
 403 300 l 1
 175 -664 l 1
231 300 m 0
 231 286 215 270 203 258 c 0
 190 245 175 229 161 229 c 0
 146 229 131 245 118 258 c 0
 106 270 90 286 90 300 c 0
 90 314 106 330 118 342 c 0
 131 355 146 371 161 371 c 0
 175 371 190 355 203 342 c 0
 215 330 231 314 231 300 c 0
EndSplineSet
EndChar

StartChar: uni2992.big4
Encoding: 167 -1 167
Width: 530
Flags: HW
HStem: 229 142<125.51 195.496>
VStem: 90 141<264.512 335.488>
LayerCount: 2
Fore
SplineSet
175 -981 m 1
 91 -963 l 1
 355 300 l 1
 91 1563 l 1
 175 1581 l 1
 439 300 l 1
 175 -981 l 1
231 300 m 0
 231 286 215 270 203 258 c 0
 190 245 175 229 161 229 c 0
 146 229 131 245 118 258 c 0
 106 270 90 286 90 300 c 0
 90 314 106 330 118 342 c 0
 131 355 146 371 161 371 c 0
 175 371 190 355 203 342 c 0
 215 330 231 314 231 300 c 0
EndSplineSet
EndChar

StartChar: uni2992.big5
Encoding: 168 -1 168
Width: 566
Flags: HW
HStem: 229 142<125.51 195.496>
VStem: 90 141<264.512 335.488>
LayerCount: 2
Fore
SplineSet
175 -1298 m 1
 91 -1282 l 1
 391 300 l 1
 91 1882 l 1
 175 1898 l 1
 475 300 l 1
 175 -1298 l 1
231 300 m 0
 231 286 215 270 203 258 c 0
 190 245 175 229 161 229 c 0
 146 229 131 245 118 258 c 0
 106 270 90 286 90 300 c 0
 90 314 106 330 118 342 c 0
 131 355 146 371 161 371 c 0
 175 371 190 355 203 342 c 0
 215 330 231 314 231 300 c 0
EndSplineSet
EndChar

StartChar: slash
Encoding: 169 47 169
Width: 536
Flags: HW
LayerCount: 2
Fore
SplineSet
175 -241 m 1
 91 -219 l 1
 361 841 l 1
 445 819 l 1
 175 -241 l 1
EndSplineSet
EndChar

StartChar: slash.big1
Encoding: 170 -1 170
Width: 608
Flags: HW
LayerCount: 2
Fore
SplineSet
175 -347 m 1
 91 -325 l 1
 433 947 l 1
 517 925 l 1
 175 -347 l 1
EndSplineSet
EndChar

StartChar: slash.big2
Encoding: 171 -1 171
Width: 716
Flags: HW
LayerCount: 2
Fore
SplineSet
174 -507 m 1
 92 -483 l 1
 542 1107 l 1
 624 1083 l 1
 174 -507 l 1
EndSplineSet
EndChar

StartChar: slash.big3
Encoding: 172 -1 172
Width: 824
Flags: HW
LayerCount: 2
Fore
SplineSet
174 -666 m 1
 92 -642 l 1
 650 1266 l 1
 732 1242 l 1
 174 -666 l 1
EndSplineSet
EndChar

StartChar: slash.big4
Encoding: 173 -1 173
Width: 1040
Flags: HW
LayerCount: 2
Fore
SplineSet
174 -985 m 1
 92 -959 l 1
 866 1585 l 1
 948 1559 l 1
 174 -985 l 1
EndSplineSet
EndChar

StartChar: slash.big5
Encoding: 174 -1 174
Width: 1256
Flags: HW
LayerCount: 2
Fore
SplineSet
174 -1303 m 1
 92 -1277 l 1
 1082 1903 l 1
 1164 1877 l 1
 174 -1303 l 1
EndSplineSet
EndChar

StartChar: backslash
Encoding: 175 92 175
Width: 536
Flags: HW
LayerCount: 2
Fore
SplineSet
445 -219 m 1
 361 -241 l 1
 91 819 l 1
 175 841 l 1
 445 -219 l 1
EndSplineSet
EndChar

StartChar: backslash.big1
Encoding: 176 -1 176
Width: 608
Flags: HW
LayerCount: 2
Fore
SplineSet
517 -325 m 1
 433 -347 l 1
 91 925 l 1
 175 947 l 1
 517 -325 l 1
EndSplineSet
EndChar

StartChar: backslash.big2
Encoding: 177 -1 177
Width: 716
Flags: HW
LayerCount: 2
Fore
SplineSet
624 -483 m 1
 542 -507 l 1
 92 1083 l 1
 174 1107 l 1
 624 -483 l 1
EndSplineSet
EndChar

StartChar: backslash.big3
Encoding: 178 -1 178
Width: 824
Flags: HW
LayerCount: 2
Fore
SplineSet
732 -642 m 1
 650 -666 l 1
 92 1242 l 1
 174 1266 l 1
 732 -642 l 1
EndSplineSet
EndChar

StartChar: backslash.big4
Encoding: 179 -1 179
Width: 1040
Flags: HW
LayerCount: 2
Fore
SplineSet
948 -959 m 1
 866 -985 l 1
 92 1559 l 1
 174 1585 l 1
 948 -959 l 1
EndSplineSet
EndChar

StartChar: backslash.big5
Encoding: 180 -1 180
Width: 1256
Flags: HW
LayerCount: 2
Fore
SplineSet
1164 -1277 m 1
 1082 -1303 l 1
 92 1877 l 1
 174 1903 l 1
 1164 -1277 l 1
EndSplineSet
EndChar

StartChar: uni2223.short
Encoding: 181 58113 181
Width: 386
Flags: HW
VStem: 150 86<35 565>
LayerCount: 2
Fore
SplineSet
150 565 m 1
 236 565 l 1
 236 35 l 1
 150 35 l 1
 150 565 l 1
EndSplineSet
EndChar

StartChar: uni2223
Encoding: 182 8739 182
Width: 386
Flags: HW
HStem: -230 21G<150 236>
VStem: 150 86<-230 830>
LayerCount: 2
Fore
SplineSet
150 830 m 1
 236 830 l 1
 236 -230 l 1
 150 -230 l 1
 150 830 l 1
EndSplineSet
EndChar

StartChar: uni2223.big1
Encoding: 183 -1 183
Width: 386
Flags: HW
VStem: 150 86<-336 936>
LayerCount: 2
Fore
SplineSet
150 936 m 1
 236 936 l 1
 236 -336 l 1
 150 -336 l 1
 150 936 l 1
EndSplineSet
EndChar

StartChar: uni2224.short
Encoding: 184 58026 184
Width: 506
Flags: HW
VStem: 210 86<35 230 370 565>
LayerCount: 2
Fore
SplineSet
387 422 m 1
 426 355 l 1
 296 280 l 1
 296 35 l 1
 210 35 l 1
 210 230 l 1
 119 178 l 1
 80 245 l 1
 210 320 l 1
 210 565 l 1
 296 565 l 1
 296 370 l 1
 387 422 l 1
EndSplineSet
EndChar

StartChar: uni2224
Encoding: 185 8740 185
Width: 566
Flags: HW
HStem: -230 21G<240 326>
VStem: 240 86<-230 202 398 830>
LayerCount: 2
Fore
SplineSet
433 505 m 1
 488 450 l 1
 326 288 l 1
 326 -230 l 1
 240 -230 l 1
 240 202 l 1
 133 95 l 1
 78 150 l 1
 240 312 l 1
 240 830 l 1
 326 830 l 1
 326 398 l 1
 433 505 l 1
EndSplineSet
EndChar

StartChar: uni2224.big1
Encoding: 186 -1 186
Width: 566
Flags: HW
VStem: 240 86<-336 202 398 936>
LayerCount: 2
Fore
SplineSet
433 505 m 1
 488 450 l 1
 326 288 l 1
 326 -336 l 1
 240 -336 l 1
 240 202 l 1
 133 95 l 1
 78 150 l 1
 240 312 l 1
 240 936 l 1
 326 936 l 1
 326 398 l 1
 433 505 l 1
EndSplineSet
EndChar

StartChar: sym0A8
Encoding: 187 -1 187
Width: 386
Flags: HW
VStem: 150 86<98 502>
LayerCount: 2
Fore
SplineSet
150 502 m 1
 236 502 l 1
 236 98 l 1
 150 98 l 1
 150 502 l 1
EndSplineSet
EndChar

StartChar: uni2225.short
Encoding: 188 58114 188
Width: 652
Flags: HW
VStem: 150 86<35 565> 416 86<35 565>
LayerCount: 2
Fore
SplineSet
150 565 m 1
 236 565 l 1
 236 35 l 1
 150 35 l 1
 150 565 l 1
416 565 m 1
 502 565 l 1
 502 35 l 1
 416 35 l 1
 416 565 l 1
EndSplineSet
EndChar

StartChar: uni2225
Encoding: 189 8741 189
Width: 652
Flags: HW
HStem: -230 21G<150 236 416 502>
VStem: 150 86<-230 830> 416 86<-230 830>
LayerCount: 2
Fore
SplineSet
150 830 m 1
 236 830 l 1
 236 -230 l 1
 150 -230 l 1
 150 830 l 1
416 830 m 1
 502 830 l 1
 502 -230 l 1
 416 -230 l 1
 416 830 l 1
EndSplineSet
EndChar

StartChar: uni2225.big1
Encoding: 190 -1 190
Width: 652
Flags: HW
VStem: 150 86<-336 936> 416 86<-336 936>
LayerCount: 2
Fore
SplineSet
150 936 m 1
 236 936 l 1
 236 -336 l 1
 150 -336 l 1
 150 936 l 1
416 936 m 1
 502 936 l 1
 502 -336 l 1
 416 -336 l 1
 416 936 l 1
EndSplineSet
EndChar

StartChar: uni2226.short
Encoding: 191 58027 191
Width: 772
Flags: HW
VStem: 210 86<35 154 293 565> 476 86<35 307 446 565>
LayerCount: 2
Fore
SplineSet
653 499 m 1
 692 432 l 1
 562 357 l 1
 562 35 l 1
 476 35 l 1
 476 307 l 1
 296 203 l 1
 296 35 l 1
 210 35 l 1
 210 154 l 1
 119 101 l 1
 80 168 l 1
 210 243 l 1
 210 565 l 1
 296 565 l 1
 296 293 l 1
 476 397 l 1
 476 565 l 1
 562 565 l 1
 562 446 l 1
 653 499 l 1
EndSplineSet
EndChar

StartChar: uni2226
Encoding: 192 8742 192
Width: 832
Flags: HW
HStem: -230 21G<240 326 506 592>
VStem: 240 86<-230 69 265 830> 506 86<-230 335 531 830>
LayerCount: 2
Fore
SplineSet
699 638 m 1
 754 583 l 1
 592 421 l 1
 592 -230 l 1
 506 -230 l 1
 506 335 l 1
 326 155 l 1
 326 -230 l 1
 240 -230 l 1
 240 69 l 1
 133 -38 l 1
 78 17 l 1
 240 179 l 1
 240 830 l 1
 326 830 l 1
 326 265 l 1
 506 445 l 1
 506 830 l 1
 592 830 l 1
 592 531 l 1
 699 638 l 1
EndSplineSet
EndChar

StartChar: uni2226.big1
Encoding: 193 -1 193
Width: 832
Flags: HW
VStem: 240 86<-336 69 265 936> 506 86<-336 335 531 936>
LayerCount: 2
Fore
SplineSet
699 638 m 1
 754 583 l 1
 592 421 l 1
 592 -336 l 1
 506 -336 l 1
 506 335 l 1
 326 155 l 1
 326 -336 l 1
 240 -336 l 1
 240 69 l 1
 133 -38 l 1
 78 17 l 1
 240 179 l 1
 240 936 l 1
 326 936 l 1
 326 265 l 1
 506 445 l 1
 506 936 l 1
 592 936 l 1
 592 531 l 1
 699 638 l 1
EndSplineSet
EndChar

StartChar: sym0A9
Encoding: 194 -1 194
Width: 652
Flags: HW
VStem: 150 86<98 502> 416 86<98 502>
LayerCount: 2
Fore
SplineSet
150 502 m 1
 236 502 l 1
 236 98 l 1
 150 98 l 1
 150 502 l 1
416 502 m 1
 502 502 l 1
 502 98 l 1
 416 98 l 1
 416 502 l 1
EndSplineSet
EndChar

StartChar: uni2980
Encoding: 195 10624 195
Width: 918
Flags: HW
HStem: -230 21G<150 236 416 502 682 768>
VStem: 150 86<-230 830> 416 86<-230 830> 682 86<-230 830>
CounterMasks: 1 70
LayerCount: 2
Fore
SplineSet
150 830 m 1
 236 830 l 1
 236 -230 l 1
 150 -230 l 1
 150 830 l 1
416 830 m 1
 502 830 l 1
 502 -230 l 1
 416 -230 l 1
 416 830 l 1
682 830 m 1
 768 830 l 1
 768 -230 l 1
 682 -230 l 1
 682 830 l 1
EndSplineSet
EndChar

StartChar: uni2980.big1
Encoding: 196 -1 196
Width: 918
Flags: HW
VStem: 150 86<-336 936> 416 86<-336 936> 682 86<-336 936>
CounterMasks: 1 e0
LayerCount: 2
Fore
SplineSet
150 936 m 1
 236 936 l 1
 236 -336 l 1
 150 -336 l 1
 150 936 l 1
416 936 m 1
 502 936 l 1
 502 -336 l 1
 416 -336 l 1
 416 936 l 1
682 936 m 1
 768 936 l 1
 768 -336 l 1
 682 -336 l 1
 682 936 l 1
EndSplineSet
EndChar

StartChar: sym0AA
Encoding: 197 -1 197
Width: 918
Flags: HW
VStem: 150 86<98 502> 416 86<98 502> 682 86<98 502>
CounterMasks: 1 e0
LayerCount: 2
Fore
SplineSet
150 502 m 1
 236 502 l 1
 236 98 l 1
 150 98 l 1
 150 502 l 1
416 502 m 1
 502 502 l 1
 502 98 l 1
 416 98 l 1
 416 502 l 1
682 502 m 1
 768 502 l 1
 768 98 l 1
 682 98 l 1
 682 502 l 1
EndSplineSet
EndChar

StartChar: arrowup.short
Encoding: 198 -1 198
Width: 566
Flags: HW
VStem: 240 86<-18 471>
LayerCount: 2
Fore
SplineSet
283 636 m 1
 469 449 l 1
 409 389 l 1
 326 471 l 1
 326 -18 l 1
 240 -18 l 1
 240 471 l 1
 157 389 l 1
 97 449 l 1
 283 636 l 1
EndSplineSet
EndChar

StartChar: arrowdown.short
Encoding: 199 -1 199
Width: 566
Flags: HW
VStem: 240 86<129 661>
LayerCount: 2
Fore
SplineSet
283 -36 m 1
 97 151 l 1
 157 211 l 1
 240 129 l 1
 240 661 l 1
 326 661 l 1
 326 129 l 1
 409 211 l 1
 469 151 l 1
 283 -36 l 1
EndSplineSet
EndChar

StartChar: sym0AB
Encoding: 200 -1 200
Width: 566
Flags: HW
VStem: 240 86<98 502>
LayerCount: 2
Fore
SplineSet
240 502 m 1
 326 502 l 1
 326 98 l 1
 240 98 l 1
 240 502 l 1
EndSplineSet
EndChar

StartChar: arrowdblup.short
Encoding: 201 -1 201
Width: 686
Flags: HW
VStem: 203 86<-61 374> 398 86<-61 373>
LayerCount: 2
Fore
SplineSet
343 636 m 1
 576 403 l 1
 515 342 l 1
 484 373 l 1
 484 -61 l 1
 398 -61 l 1
 398 459 l 1
 343 514 l 1
 289 460 l 1
 289 -61 l 1
 203 -61 l 1
 203 374 l 1
 171 342 l 1
 110 403 l 1
 343 636 l 1
EndSplineSet
EndChar

StartChar: arrowdbldown.short
Encoding: 202 -1 202
Width: 686
Flags: HW
VStem: 203 86<226 661> 398 86<227 661>
LayerCount: 2
Fore
SplineSet
343 -36 m 1
 110 197 l 1
 171 258 l 1
 203 226 l 1
 203 661 l 1
 289 661 l 1
 289 140 l 1
 343 86 l 1
 398 141 l 1
 398 661 l 1
 484 661 l 1
 484 227 l 1
 515 258 l 1
 576 197 l 1
 343 -36 l 1
EndSplineSet
EndChar

StartChar: sym0AC
Encoding: 203 -1 203
Width: 686
Flags: HW
VStem: 203 86<98 502> 398 86<98 502>
LayerCount: 2
Fore
SplineSet
203 502 m 1
 289 502 l 1
 289 98 l 1
 203 98 l 1
 203 502 l 1
398 502 m 1
 484 502 l 1
 484 98 l 1
 398 98 l 1
 398 502 l 1
EndSplineSet
EndChar

StartChar: sym0AD
Encoding: 204 -1 204
Width: 265
Flags: HW
HStem: 257 86<153.92 308>
VStem: 0 72<84 168.981>
LayerCount: 2
Fore
SplineSet
0 84 m 1
 0 222 97 343 230 343 c 2
 308 343 l 1
 308 257 l 1
 230 257 l 2
 140 257 72 177 72 84 c 1
 0 84 l 1
EndSplineSet
EndChar

StartChar: sym0AF
Encoding: 205 -1 205
Width: 265
Flags: HW
HStem: 257 86<153.92 308>
VStem: 0 72<431.019 516>
LayerCount: 2
Fore
SplineSet
72 516 m 1
 72 423 140 343 230 343 c 2
 308 343 l 1
 308 257 l 1
 230 257 l 2
 97 257 0 378 0 516 c 1
 72 516 l 1
EndSplineSet
EndChar

StartChar: sym0AE
Encoding: 206 -1 206
Width: 265
Flags: HW
HStem: 257 86<-43 111.08>
VStem: 193 72<84 168.981>
LayerCount: 2
Fore
SplineSet
193 84 m 1
 193 177 125 257 35 257 c 2
 -43 257 l 1
 -43 343 l 1
 35 343 l 2
 168 343 265 222 265 84 c 1
 193 84 l 1
EndSplineSet
EndChar

StartChar: sym0B0
Encoding: 207 -1 207
Width: 265
Flags: HW
HStem: 257 86<-43 111.08>
VStem: 193 72<431.019 516>
LayerCount: 2
Fore
SplineSet
265 516 m 1
 265 378 168 257 35 257 c 2
 -43 257 l 1
 -43 343 l 1
 35 343 l 2
 125 343 193 423 193 516 c 1
 265 516 l 1
EndSplineSet
EndChar

StartChar: sym0B2
Encoding: 208 -1 208
Width: 530
Flags: HW
HStem: 257 86<-43 149.409 380.591 573>
VStem: 226 78<427.868 516>
LayerCount: 2
Fore
SplineSet
573 257 m 1
 452 257 l 2
 371 257 304 302 265 369 c 1
 226 302 159 257 78 257 c 2
 -43 257 l 1
 -43 343 l 1
 78 343 l 2
 165 343 226 424 226 516 c 1
 304 516 l 1
 304 424 365 343 452 343 c 2
 573 343 l 1
 573 257 l 1
EndSplineSet
EndChar

StartChar: sym0B3
Encoding: 209 -1 209
Width: 530
Flags: HW
HStem: 257 86<-43 149.409 380.591 573>
VStem: 226 78<84 172.132>
LayerCount: 2
Fore
SplineSet
-43 343 m 1
 78 343 l 2
 159 343 226 298 265 231 c 1
 304 298 371 343 452 343 c 2
 573 343 l 1
 573 257 l 1
 452 257 l 2
 365 257 304 176 304 84 c 1
 226 84 l 1
 226 176 165 257 78 257 c 2
 -43 257 l 1
 -43 343 l 1
EndSplineSet
EndChar

StartChar: sym0B1
Encoding: 210 -1 210
Width: 60
Flags: HW
HStem: 257 86<-43 103>
VStem: -43 146<257 343>
LayerCount: 2
Fore
SplineSet
-43 257 m 1
 -43 343 l 1
 103 343 l 1
 103 257 l 1
 -43 257 l 1
EndSplineSet
EndChar

StartChar: radical.tex
Encoding: 211 -1 211
Width: 755
Flags: HW
HStem: 0 60<755 798>
LayerCount: 2
Fore
SplineSet
54 -613 m 1
 36 -573 l 1
 232 -485 l 1
 383 -820 l 1
 685 60 l 1
 798 60 l 1
 798 0 l 1
 755 0 l 1
 414 -965 l 1
 336 -1000 l 1
 143 -573 l 1
 54 -613 l 1
EndSplineSet
EndChar

StartChar: radical.tex.big1
Encoding: 212 -1 212
Width: 803
Flags: HW
HStem: 0 60<803 846>
LayerCount: 2
Fore
SplineSet
58 -709 m 1
 43 -669 l 1
 243 -591 l 1
 408 -1012 l 1
 732 60 l 1
 846 60 l 1
 846 0 l 1
 803 0 l 1
 437 -1181 l 1
 357 -1212 l 1
 147 -675 l 1
 58 -709 l 1
EndSplineSet
EndChar

StartChar: radical.tex.big2
Encoding: 213 -1 213
Width: 875
Flags: HW
HStem: 0 60<875 918>
LayerCount: 2
Fore
SplineSet
68 -859 m 1
 55 -818 l 1
 259 -750 l 1
 442 -1303 l 1
 802 60 l 1
 918 60 l 1
 918 0 l 1
 875 0 l 1
 471 -1503 l 1
 389 -1530 l 1
 156 -829 l 1
 68 -859 l 1
EndSplineSet
EndChar

StartChar: radical.tex.big3
Encoding: 214 -1 214
Width: 947
Flags: HW
HStem: 0 60<947 990>
LayerCount: 2
Fore
SplineSet
81 -1011 m 1
 69 -969 l 1
 275 -909 l 1
 477 -1597 l 1
 873 60 l 1
 990 60 l 1
 990 0 l 1
 947 0 l 1
 503 -1824 l 1
 421 -1848 l 1
 168 -985 l 1
 81 -1011 l 1
EndSplineSet
EndChar

StartChar: radical.tex.big4
Encoding: 215 -1 215
Width: 1091
Flags: HW
HStem: 0 60<1091 1134>
LayerCount: 2
Fore
SplineSet
108 -1320 m 1
 98 -1278 l 1
 307 -1227 l 1
 543 -2195 l 1
 1016 60 l 1
 1134 60 l 1
 1134 0 l 1
 1091 0 l 1
 568 -2464 l 1
 485 -2484 l 1
 195 -1298 l 1
 108 -1320 l 1
EndSplineSet
EndChar

StartChar: radical.tex.big5
Encoding: 216 -1 216
Width: 1235
Flags: HW
HStem: 0 60<1235 1278>
LayerCount: 2
Fore
SplineSet
138 -1632 m 1
 129 -1590 l 1
 339 -1545 l 1
 609 -2801 l 1
 1159 60 l 1
 1278 60 l 1
 1278 0 l 1
 1235 0 l 1
 633 -3102 l 1
 549 -3120 l 1
 225 -1614 l 1
 138 -1632 l 1
EndSplineSet
EndChar

StartChar: radical.tex.top
Encoding: 217 -1 217
Width: 1235
Flags: HW
HStem: -0 60<635 1265>
VStem: 549 86<-619 0>
LayerCount: 2
Fore
SplineSet
635 -619 m 1
 549 -619 l 1
 549 60 l 1
 1265 60 l 1
 1265 0 l 1
 635 -0 l 1
 635 -619 l 1
EndSplineSet
EndChar

StartChar: uni23B7.tex
Encoding: 218 -1 218
Width: 1235
Flags: HW
VStem: 549 86<-1066 43>
LayerCount: 2
Fore
SplineSet
107 -765 m 1
 84 -729 l 1
 266 -614 l 1
 549 -1066 l 1
 549 43 l 1
 635 43 l 1
 635 -1218 l 1
 549 -1272 l 1
 196 -709 l 1
 107 -765 l 1
EndSplineSet
EndChar

StartChar: radical.ex
Encoding: 219 -1 219
Width: 1235
Flags: HW
VStem: 549 86<98 502>
LayerCount: 2
Fore
SplineSet
549 502 m 1
 635 502 l 1
 635 98 l 1
 549 98 l 1
 549 502 l 1
EndSplineSet
EndChar

StartChar: radical
Encoding: 220 8730 220
Width: 755
Flags: HW
HStem: -230 21G<326.96 380.571> 770 60<755 798>
LayerCount: 2
Fore
SplineSet
54 157 m 1
 36 197 l 1
 232 285 l 1
 383 -50 l 1
 685 830 l 1
 798 830 l 1
 798 770 l 1
 755 770 l 1
 414 -195 l 1
 336 -230 l 1
 143 197 l 1
 54 157 l 1
EndSplineSet
EndChar

StartChar: radical.big1
Encoding: 221 -1 221
Width: 803
Flags: HW
HStem: 876 60<803 846>
LayerCount: 2
Fore
SplineSet
58 167 m 1
 43 207 l 1
 243 285 l 1
 408 -136 l 1
 732 936 l 1
 846 936 l 1
 846 876 l 1
 803 876 l 1
 437 -305 l 1
 357 -336 l 1
 147 201 l 1
 58 167 l 1
EndSplineSet
EndChar

StartChar: radical.big2
Encoding: 222 -1 222
Width: 875
Flags: HW
HStem: 1035 60<875 918>
LayerCount: 2
Fore
SplineSet
68 176 m 1
 55 217 l 1
 259 285 l 1
 442 -268 l 1
 802 1095 l 1
 918 1095 l 1
 918 1035 l 1
 875 1035 l 1
 471 -468 l 1
 389 -495 l 1
 156 206 l 1
 68 176 l 1
EndSplineSet
EndChar

StartChar: radical.big3
Encoding: 223 -1 223
Width: 947
Flags: HW
HStem: 1194 60<947 990>
LayerCount: 2
Fore
SplineSet
81 183 m 1
 69 225 l 1
 275 285 l 1
 477 -403 l 1
 873 1254 l 1
 990 1254 l 1
 990 1194 l 1
 947 1194 l 1
 503 -630 l 1
 421 -654 l 1
 168 209 l 1
 81 183 l 1
EndSplineSet
EndChar

StartChar: radical.big4
Encoding: 224 -1 224
Width: 1091
Flags: HW
HStem: 1512 60<1091 1134>
LayerCount: 2
Fore
SplineSet
108 192 m 1
 98 234 l 1
 307 285 l 1
 543 -683 l 1
 1016 1572 l 1
 1134 1572 l 1
 1134 1512 l 1
 1091 1512 l 1
 568 -952 l 1
 485 -972 l 1
 195 214 l 1
 108 192 l 1
EndSplineSet
EndChar

StartChar: radical.big5
Encoding: 225 -1 225
Width: 1235
Flags: HW
HStem: 1830 60<1235 1278>
LayerCount: 2
Fore
SplineSet
138 198 m 1
 129 240 l 1
 339 285 l 1
 609 -971 l 1
 1159 1890 l 1
 1278 1890 l 1
 1278 1830 l 1
 1235 1830 l 1
 633 -1272 l 1
 549 -1290 l 1
 225 216 l 1
 138 198 l 1
EndSplineSet
EndChar

StartChar: radical.top
Encoding: 226 -1 226
Width: 1235
Flags: HW
HStem: 576 60<635 1265>
VStem: 549 86<-43 576>
LayerCount: 2
Fore
SplineSet
635 -43 m 1
 549 -43 l 1
 549 636 l 1
 1265 636 l 1
 1265 576 l 1
 635 576 l 1
 635 -43 l 1
EndSplineSet
EndChar

StartChar: uni23B7
Encoding: 227 9143 227
Width: 1235
Flags: HW
HStem: 0 21G<536.46 580.852>
VStem: 549 86<206 1315>
LayerCount: 2
Fore
SplineSet
107 507 m 1
 84 543 l 1
 266 657 l 1
 549 206 l 1
 549 1315 l 1
 635 1315 l 1
 635 54 l 1
 549 0 l 1
 196 563 l 1
 107 507 l 1
EndSplineSet
EndChar
